**ABCDEFGHIJKLMNOPQRSTUVWXYZabcdefghijklmnopqrstuvwxyz**************************
**PARASOLID !"#$%&'()*+,-./:;<=>?@[\]^_`{|}~0123456789**************************
**PART1;
MC=AMD64;
MC_MODEL=Intel64 Family 6 Model 158 Stepping 10, GenuineIntel;
MC_ID=unknown;
OS=Windows_NT;
OS_RELEASE=unknown;
FRU=Parasolid Version 31.0, build 282,  2-25-2019;
APPL=SOLIDWORKS 2019-2019227;
SITE=;
USER=unknown;
FORMAT=text;
GUISE=transmit;
KEY=Pintle_OuterV7-1;
FILE=Pintle_OuterV7-1.x_t;
DATE=Tue Feb 11 17:13:15 2020;
**PART2;
SCH=SCH_3100282_31001;
USFLD_SIZE=0;
**PART3;
**END_OF_HEADER*****************************************************************
T51 : TRANSMIT FILE created by modeller version 310028223 SCH_3100282_31001_1300
6215 0 12 34 CCCCCCI4 mesh1006 0 I8 polyline1008 0 CCCCCCCDI5 owner1040 0 CCCCCC
I13 boundary_mesh1006 0 I17 boundary_polyline1008 0 CCCA16 index_map_offset0 0 1
 dA9 index_map82 0 A17 node_id_index_map82 0 A20 schema_embedding_map82 0 A5 chi
ld12 0 A14 lowest_node_id0 0 1 dA16 mesh_offset_data206 0 Z1 3996 2 3 0 0 0 0 0
 0 1e3 1e-8 0 4 0 1 0 1 1 5 6 7 8 0 0 9 10 11 0 0 0 0 0 0 0 81 255 2 2 3955 12 1
 13 0 0 0 0 14 70 11 CI9 list_type0 0 1 uI10 notransmit0 0 1 lCCCDCCDI12 finger_
index0 0 1 dI12 finger_block1012 0 CZ3 0 4 T1 0 0 10 20 1 15 15 13 255 5 55 0 1
 0 16 0 0 17 0 51 255 6 2881 0 18 19 0 20 +-.00578591399454444 0 -.0008567381442
04429 0 1 0 .001651 0 0 1 31 255 7 3712 0 21 22 0 0 +.0250842032298846 -.009525
 .00399283712688686 0 1 0 0 0 1 .0032639 29 255 8 3052 0 11 23 0 .00496041399454
443 -.0583989333223013 -.002286546085852615 19 8 CCCCCCCA5 owner12 0 Z9 59 0 1 1
7 0 24 V0 16 255 10 2995 0 ?25 0 26 27 0 0 1 18 255 11 3050 0 28 0 29 8 ?1 17 25
5 28 0 30 31 32 11 33 34 0 35 +18 29 3002 0 36 11 37 23 ?1 17 36 0 38 39 40 29 4
1 42 0 43 +18 37 2992 0 44 29 45 46 ?1 29 23 3004 0 29 46 8 -.004460413994544465
 -.0583989333223013 -.00315257148963699 29 46 2994 0 37 47 23 -.0074191066779079
 -.057174409962648 -.001098570025907542 29 47 2432 0 45 48 46 -.0046609428892261
2 -.063175 -.00587584984350116 18 45 2430 0 49 37 50 47 ?1 29 48 2415 0 50 51 47
 -.0074191066779079 -.063175 -.001098570025907542 18 50 2413 0 52 45 53 48 ?1 29
 51 2404 0 53 54 48 -.00370647714551724 -.063175 -.0004182429554198955 18 53 240
2 0 55 50 56 51 ?1 29 54 2383 0 56 57 51 -.00496041399454446 -.063175 -.00228654
6085852545 18 56 2380 0 58 53 59 54 ?1 29 57 2379 0 59 60 54 -.00452156528687086
 -.063175 -.00203317666634368 18 59 2376 0 61 56 62 57 ?1 29 60 2370 0 62 63 57
 -.00221544759710619 -.063175 -.00300078188885437 18 62 2368 0 64 59 65 60 ?1 29
 63 2352 0 65 66 60 -.00402156528687087 -.063175 -.002899202070128125 18 65 2349
 0 67 62 68 63 ?1 29 66 2348 0 68 69 63 -.004460413994544465 -.063175 -.00315257
148963699 18 68 2345 0 70 65 71 66 ?1 29 69 1868 0 71 72 66 .00741910667790789 -
.063175 -.001098570025907646 18 71 1866 0 73 68 74 69 ?1 29 72 1851 0 74 75 69 .
00466094288922604 -.063175 -.00587584984350122 18 74 1849 0 76 71 77 72 ?1 29 75
 1843 0 77 78 72 .002215447597106145 -.063175 -.003000781888854405 18 77 1841 0
 79 74 80 75 ?1 29 78 1819 0 80 81 75 .00446041399454442 -.063175 -.003152571489
63705 18 80 1816 0 82 77 83 78 ?1 29 81 1815 0 83 84 78 .00402156528687083 -.063
175 -.00289920207012818 18 83 1812 0 85 80 86 81 ?1 29 84 1806 0 86 87 81 .00370
6477145517235 -.063175 -.000418242955419947 18 86 1804 0 88 83 89 84 ?1 29 87 17
88 0 89 90 84 .00452156528687083 -.063175 -.002033176666343745 18 89 1785 0 91 8
6 92 87 ?1 29 90 1784 0 92 93 87 .00496041399454443 -.063175 -.00228654608585261
5 18 92 1781 0 94 89 95 90 ?1 29 93 752 0 95 96 90 -.002758163788681825 -.063175
 .00697441986940881 18 95 750 0 97 92 98 93 ?1 29 96 735 0 98 99 93 .00275816378
8681825 -.063175 .00697441986940881 18 98 733 0 100 95 101 96 ?1 29 99 722 0 101
 102 96 5e-4 -.063175 .00543911757548962 18 101 720 0 103 98 104 99 ?1 29 102 71
9 0 104 105 99 5e-4 -.063175 .00493237873647189 18 104 717 0 106 101 107 102 ?1
 29 105 694 0 107 108 102 -5e-4 -.063175 .00493237873647189 18 107 692 0 109 104
 110 105 ?1 29 108 691 0 110 111 105 -5e-4 -.063175 .00543911757548962 18 110 68
9 0 112 107 113 108 ?1 29 111 672 0 113 114 108 .001491029548411076 -.063175 .00
3419024844274325 18 113 670 0 115 110 116 111 ?1 29 114 669 0 116 117 111 -.0014
91029548411076 -.063175 .003419024844274325 18 116 667 0 118 113 119 114 ?1 29 1
17 3333 0 119 120 114 .001491029548411076 -.0594396544963819 .003419024844274325
 18 119 3253 0 121 116 122 117 ?1 29 120 3334 0 122 123 117 5e-4 -.0587020039289
429 .00493237873647189 18 122 3240 0 124 119 125 120 ?1 29 123 3335 0 125 126 12
0 5e-4 -.0583989333223013 .00543911757548962 18 125 3241 0 127 122 128 123 ?1 29
 126 3336 0 128 129 123 .003706477145517235 -.0594396544963819 -.000418242955419
947 18 128 3254 0 130 125 131 126 ?1 29 129 3337 0 131 132 126 .0027581637886818
25 -.057174409962648 .00697441986940881 18 131 3242 0 133 128 134 129 ?1 29 132
 3338 0 134 135 129 .00452156528687083 -.0587020039289429 -.002033176666343745 1
8 134 3255 0 32 131 136 132 ?1 29 135 3340 0 136 137 132 .00741910667790789 -.05
7174409962648 -.001098570025907646 18 136 3243 0 31 134 138 135 ?1 29 137 3341 0
 138 139 135 .002215447597106145 -.0594396544963819 -.003000781888854405 18 138
 3257 0 140 136 141 137 ?1 29 139 3342 0 141 142 137 .00402156528687083 -.058702
0039289429 -.00289920207012818 18 141 3244 0 143 138 144 139 ?1 29 142 3343 0 14
4 145 139 .004460413994544425 -.0583989333223013 -.00315257148963705 18 144 3245
 0 146 141 147 142 ?1 29 145 3344 0 147 148 142 -.00221544759710619 -.0594396544
963819 -.00300078188885437 18 147 3258 0 149 144 150 145 ?1 29 148 3345 0 150 15
1 145 .00466094288922604 -.057174409962648 -.00587584984350122 18 150 3246 0 152
 147 153 148 ?1 29 151 3346 0 153 154 148 -.00402156528687087 -.0587020039289429
 -.002899202070128125 18 153 3259 0 40 150 155 151 ?1 29 154 3348 0 155 156 151
 -.00466094288922612 -.057174409962648 -.00587584984350116 18 155 3247 0 39 153
 157 154 ?1 29 156 3349 0 157 158 154 -.001491029548411076 -.0594396544963819 .0
03419024844274325 18 157 3248 0 159 155 160 156 ?1 29 158 3350 0 160 161 156 -5e
-4 -.0587020039289429 .00493237873647189 18 160 3261 0 162 157 163 158 ?1 29 161
 3351 0 163 164 158 -5e-4 -.0583989333223013 .00543911757548962 18 163 3262 0 16
5 160 166 161 ?1 29 164 3352 0 166 167 161 -.00370647714551724 -.059439654496381
9 -.0004182429554198955 18 166 3249 0 168 163 169 164 ?1 29 167 3353 0 169 170 1
64 -.002758163788681825 -.057174409962648 .00697441986940881 18 169 3263 0 171 1
66 172 167 ?1 29 170 3354 0 172 173 167 -.00452156528687086 -.0587020039289429 -
.00203317666634368 18 172 3250 0 174 169 175 170 ?1 29 173 3356 0 175 0 170 -.00
496041399454446 -.0583989333223013 -.002286546085852545 18 175 3251 0 176 172 0
 173 ?1 17 176 0 177 174 44 175 25 10 0 178 -15 255 177 3275 0 165 179 180 17 17
4 0 177 168 176 172 178 181 0 182 +17 44 0 177 176 171 37 183 184 0 25 -17 25 0
 185 186 187 37 176 10 0 188 +17 178 0 189 58 190 175 174 181 0 187 -15 189 3087
 0 178 191 0 17 58 0 189 192 178 56 187 193 0 194 +17 190 0 189 178 192 172 195
 196 0 0 +16 181 3238 0 ?174 184 197 198 0 0 1 17 187 0 185 25 199 175 58 193 0
 0 -15 185 2870 0 187 18 0 17 199 0 185 187 186 56 200 26 0 0 -16 193 2990 0 ?58
 196 201 202 0 0 1 16 196 2396 0 ?190 203 193 204 0 0 1 16 201 2371 0 ?205 193 2
06 207 0 0 1 30 255 202 2392 0 193 207 204 0 --.00496041399454446 -.046488254694
1344 -.002286546085852545 0 1 0 30 207 2373 0 201 208 202 0 --.00221544759710619
 -.053175 -.00300078188885437 0 -1 0 30 204 2398 0 196 202 209 0 +-.004521565286
87086 -.053175 -.00203317666634368 0 1 0 30 209 2410 0 203 204 210 0 +-.00370647
714551724 -.053175 -.0004182429554198955 0 -1 0 16 203 3015 0 ?55 211 196 209 0
 0 1 30 210 2420 0 211 209 212 0 +-.0074191066779079 0 -.001098570025907542 0 1
 0 16 211 2418 0 ?188 213 203 210 0 0 1 30 212 2433 0 213 210 214 0 --.004660942
88922612 0 -.00587584984350116 0 1 0 16 213 3006 0 ?49 215 211 212 0 0 1 31 214
 2751 0 215 212 216 0 --.003196065286870885 -.063175 -.00432901001177624 0 -1 0
 0 0 -1 .001651 16 215 2439 0 ?64 217 213 214 0 0 1 31 216 2754 0 217 214 218 0
 --.00534706528687085 -.063175 -.000603368724695565 0 -1 0 0 0 -1 .001651 16 217
 2464 0 ?61 219 215 216 0 0 1 31 218 2755 0 219 216 220 0 --.00363491399454448 -
.063175 -.0045823794312851 0 -1 0 0 0 -1 .001651 16 219 2471 0 ?70 26 217 218 0
 0 1 31 220 2758 0 26 218 27 0 --.00578591399454444 -.063175 -.00085673814420442
9 0 -1 0 0 0 -1 .001651 16 26 2496 0 ?200 10 219 220 0 0 1 38 12 CCCCCCCCCCCA17
 intersection_data204 0 Z27 2997 0 10 220 221 0 +6 222 223 224 225 226 31 221 31
92 0 227 27 22 0 -0 -.00893629963530083 0 0 1 0 0 0 1 .007540625 52 255 222 3307
 0 179 228 229 230 +0 -.05715 0 0 1 0 .007540625 .857167300702111 .5150380749100
56 0 0 1 40 255 6 223 0 1 6 .000160037581660765 .386222303395076 ??-.00496021399
454446 -.0583990715071658 -.00228643059714668 -.00564908134334927 -.057968517650
6834 -.002502058120855445 -.00630645073698829 -.0576213928323234 -.0024235318446
532 -.0068639651017257 -.0573666088814293 -.00210718078995243 -.0072355392491730
4 -.0572221154663917 -.00164692016193388 -.007419136280011 -.0571744099684488 -.
001098370025907542 41 3 CI8 term_use0 0 1 cCZ1 224 L?-.00496021399454446 -.05839
90715071658 -.00228643059714668 41 1 225 L?-.007419136280011 -.0571744099684488
 -.001098370025907542 204 2 17 INTERSECTION_DATA17 Intersection data7 uv_type0 0
 1 u6 values0 1 1 fT24 226 4 2.617853993415825 -.0583990715071658 4.280463117133
66 -.001249071507165752 3.05861882862883 -.0579685176506834 4.2954432422368 -.00
0818517650683398 3.462350380370835 -.0576213928323234 4.34549505388462 -.0004713
92832323407 3.853089998081205 -.0573666088814293 4.41453012617405 -.000216608881
429282 4.21332017918423 -.0572221154663917 4.488586561141395 -721154663916729e-1
9 4.56550653365944 -.0571744099684488 4.56541103242357 -244099684487895e-19 14 2
55 179 3270 231 ?232 233 30 5 222 -0 0 232 233 24 51 228 3308 0 233 234 222 0 +0
 0 0 0 1 0 .007540625 0 0 1 50 255 229 1657 0 191 222 235 236 +-.007638928745088
9 -.0464882546941344 -.00383298729810773 -.499999999999992 0 .866025403784443 .8
66025403784444 0 .499999999999992 141 255 230 27 237 238 222 141 237 239 240 230
 222 141 238 198 230 241 222 38 198 3330 0 181 242 243 0 +229 222 244 245 246 24
7 141 241 248 238 249 222 38 248 3328 0 250 243 251 0 +252 222 253 254 255 256 1
41 249 251 241 257 222 38 251 3327 0 258 248 259 0 +260 222 261 262 263 264 141
 257 259 249 265 222 38 259 3326 0 266 251 267 0 +268 222 269 270 271 272 141 26
5 273 257 274 222 38 273 3324 0 275 267 276 0 +277 222 278 279 280 281 141 274 2
76 265 282 222 38 276 3323 0 283 273 284 0 +19 222 285 286 287 288 141 282 284 2
74 289 222 38 284 3322 0 42 276 290 0 +235 222 291 292 293 294 141 289 290 282 2
95 222 38 290 3321 0 296 284 297 0 +298 222 299 300 301 302 141 295 297 289 303
 222 38 297 3320 0 304 290 305 0 +306 222 307 308 309 310 141 303 305 295 311 22
2 38 305 3319 0 312 297 313 0 +314 222 315 316 317 318 141 311 319 303 320 222 3
8 319 3317 0 321 313 322 0 +323 222 324 325 326 327 141 320 322 311 328 222 38 3
22 3316 0 329 319 330 0 +331 222 332 333 334 335 141 328 330 320 336 222 38 330
 3315 0 34 322 337 0 +338 222 339 340 341 342 141 336 337 328 343 222 38 337 331
4 0 344 330 345 0 +346 222 347 348 349 350 141 343 345 336 240 222 38 345 3313 0
 351 337 352 0 +353 222 354 355 356 357 141 240 352 343 237 222 38 352 3312 0 35
8 345 359 0 +360 222 361 362 363 364 16 358 3232 0 ?124 365 351 352 0 0 1 31 359
 3311 0 365 352 239 0 +0 -.0594396544963819 0 0 1 0 0 0 1 .00373 50 360 449 0 36
6 367 268 368 +5e-4 -.047287453482137 .008532 1 0 -1494935777298166e-31 -1494935
777298166e-31 0 -1 40 3 361 0 1 3 110590749542555e-19 .00586675750045465 ??5e-4
 -.0558173899660834 .00974564272177148 5e-4 -.0586291589228093 .0050542195589872
5 5e-4 -.0600931810356477 .002594611577751285 41 1 362 L?5e-4 -.0558173899660834
 .00974564272177148 41 1 363 L?5e-4 -.0600931810356477 .002594611577751285 204 1
2 364 4 -.00121364272177144 -.00852993648394641 .0512600354493484 .0013326100339
16564 .0034777804410128 -.0113417054406723 .0986064031508399 -.00147915892280930
8 .00593738842224876 -.0128057275535107 .190373395809354 -.00294318103564774 14
 366 409 369 ?370 371 372 5 360 +0 0 370 371 24 50 367 451 0 370 373 360 0 +0 -.
063175 0 0 -1 0 0 0 -1 50 268 447 0 371 360 374 375 +-5e-4 -.047287453482137 .00
8532 -1 0 -1121201832973624e-31 -1121201832973624e-31 0 1 141 368 352 368 368 36
0 14 371 405 376 ?366 377 378 5 268 +0 0 366 377 24 51 374 96 0 379 268 380 0 -0
 0 0 0 1 0 .0135 0 0 1 141 375 259 375 375 268 14 379 66 381 ?382 383 384 5 374
 -0 0 382 383 24 50 380 97 0 383 374 385 0 +.03048 -.009525 0 0 1 0 0 0 1 14 383
 71 386 ?379 387 388 5 380 -0 0 379 387 24 51 385 98 0 387 380 389 0 -0 0 0 0 1
 0 .03048 0 0 1 14 387 76 390 ?383 391 392 5 385 -0 0 383 391 24 50 389 99 0 391
 385 393 0 +.0127 0 0 0 -1 0 0 0 -1 14 391 81 394 ?387 395 396 5 389 -0 0 387 39
5 24 52 393 100 0 395 389 397 0 +0 0 0 0 1 0 .0127 .5 .866025403784442 0 0 1 14
 395 86 398 ?391 399 400 5 393 -0 0 391 399 24 51 397 101 0 399 393 401 0 +0 0 0
 0 1 0 .0075 0 0 1 14 399 91 402 ?395 403 404 5 397 -0 0 395 403 24 50 401 102 0
 403 397 405 0 +.0135 -.069525 0 0 1 0 0 0 1 14 403 94 406 ?399 407 408 5 401 -0
 0 399 407 24 52 405 197 0 382 401 409 0 -0 -.069525 0 0 -1 0 .009532 .927183854
566789 .374606593415908 0 0 -1 14 382 190 410 ?411 379 412 5 405 +0 0 411 379 24
 54 255 409 232 0 411 405 413 0 +0 -.0681686275738593 0 0 1 0 .00829375 79375e-8
 0 0 1 14 411 225 414 ?377 382 415 5 409 +0 0 377 382 24 52 413 266 0 377 409 27
7 0 -0 -.009525 0 0 1 0 .016675 .707106781186551 .707106781186544 0 0 1 14 377 2
59 416 ?371 411 417 5 413 -0 0 371 411 24 51 277 1042 0 418 413 419 420 +-.00215
1 -.053175 .00493237873647189 0 -1 0 .001651 0 0 -1 14 418 1030 421 ?422 423 424
 5 277 -0 0 422 423 24 51 419 1063 0 422 277 260 425 +.002151 -.053175 .00493237
873647189 0 -1 0 .001651 0 0 -1 141 420 273 420 420 277 14 422 1051 426 ?427 418
 428 5 419 -0 0 427 418 24 51 260 1084 0 427 419 353 429 +-.002151 0 .0054391175
7548962 0 1 0 .001651 0 0 1 141 425 239 425 425 419 38 239 3310 0 430 359 431 0
 +419 222 432 433 434 435 16 430 3214 0 ?436 437 365 239 0 0 1 31 431 3309 0 437
 239 438 0 +0 -.0600405151154095 0 0 1 0 0 0 1 .00273 40 5 432 0 1 5 .0001083786
185519804 .3626294878605255 ??.001491229548411076 -.0594396544838851 .0034189376
40422835 .001096189186365904 -.0593838902702458 .003662270415327355 .00079732684
19903 -.0592376834743845 .00398719622431667 .000556863300834385 -.05895469198274
26 .00450281013383273 .000500000012113871 -.058701884368791 .00493257873647155 4
1 1 433 L?.001491229548411076 -.0594396544838851 .003418937640422835 41 1 434 L?
.000500000012113871 -.058701884368791 .00493257873647155 204 20 435 4 5.87208447
037869 .00626465448388509 .4112914843136415 -.002289654483885095 5.5901280857405
1 .00620889027024577 .2908324250199245 -.00223389027024577 5.32192966404814 .006
06268347438448 .19736845301454 -.002087683474384485 4.97560476430318 .0057796919
8274256 .1230454112123516 -.00180469198274256 4.71226784168078 .0055268843687910
2 .1010217940483222 -.00155188436879103 16 437 3229 0 ?439 227 430 431 0 0 1 30
 438 1675 0 440 431 441 0 +-.00713892874508891 -.063175 -.00469901270189218 .866
025403784443 0 .499999999999992 16 440 2346 0 ?442 443 227 438 0 0 1 30 441 1673
 0 443 438 444 0 +-.0076389287450889 -.063175 -.00383298729810773 -.866025403784
443 0 -.499999999999992 16 443 2377 0 ?194 445 440 441 0 0 1 31 444 1663 0 445 4
41 446 0 -0 -.063175 0 0 -1 0 0 0 -1 .0075 16 445 1565 0 ?52 447 443 444 0 0 1 3
0 446 1356 0 447 444 448 0 +.00763892874508885 -.063175 -.00383298729810784 -.86
6025403784437 0 .5 16 447 1782 0 ?449 450 445 446 0 0 1 30 448 1354 0 450 446 45
1 0 +.00713892874508885 -.063175 -.00469901270189228 .866025403784436 0 -.5 16 4
50 1813 0 ?452 453 447 448 0 0 1 31 451 1344 0 453 448 454 0 -0 -.063175 0 0 -1
 0 0 0 -1 .0075 16 453 1246 0 ?76 455 450 451 0 0 1 31 454 620 0 455 451 456 0 +
0 -.063175 0 0 -1 0 0 0 -1 .00273 16 455 564 0 ?457 458 453 454 0 0 1 31 456 619
 0 459 454 460 0 +0 -.063175 0 0 -1 0 0 0 -1 .00373 16 459 668 0 ?461 462 463 45
6 463 458 1 30 460 461 0 462 456 464 0 +-5e-4 -.063175 .008532 1121201832973624e
-31 0 -1 16 462 690 0 ?465 466 459 460 0 0 1 30 464 459 0 466 460 467 0 +5e-4 -.
063175 .008532 1494935777298166e-31 0 1 16 466 718 0 ?468 469 462 464 0 0 1 31 4
67 103 0 469 464 470 0 +0 -.069525 0 0 1 0 0 0 1 .0135 16 469 61 0 ?471 472 466
 467 0 0 1 31 470 105 0 472 467 473 0 +0 -.009525 0 0 1 0 0 0 1 .03048 16 472 68
 0 ?474 475 469 470 0 0 1 31 473 106 0 475 470 476 0 +0 0 0 0 1 0 0 0 1 .03048 1
6 475 73 0 ?477 478 472 473 0 0 1 31 476 107 0 478 473 479 0 +0 0 0 0 1 0 0 0 1
 .0127 16 478 78 0 ?480 481 475 476 0 0 1 31 479 175 0 481 476 482 0 +0 -.069525
 0 0 1 0 0 0 1 .009532 16 481 172 0 ?483 484 478 479 0 0 1 31 482 210 0 484 479
 485 0 -0 -.0681686275738593 0 0 1 0 0 0 1 .0075 16 484 207 0 ?486 487 481 482 0
 0 1 31 485 216 0 487 482 488 0 -0 -.0689045797584217 0 0 -1 0 0 0 -1 .007996406
01647613 16 487 213 0 ?489 490 484 485 0 0 1 31 488 244 0 490 485 491 0 +0 -.009
525 0 0 1 0 0 0 1 .016675 16 490 241 0 ?492 493 487 488 0 0 1 31 491 250 0 493 4
88 494 0 -0 -.0127 0 0 1 0 0 0 1 .0135 16 493 247 0 ?495 496 490 491 0 0 1 31 49
4 357 0 496 491 497 0 -0 -.063175 0 0 -1 0 0 0 -1 .0075 16 496 355 0 ?100 498 49
3 494 0 0 1 30 497 681 0 498 494 499 0 +.001491029548411076 -.053175 .0034190248
44274325 0 -1 0 16 498 3138 0 ?115 500 496 497 0 0 1 30 499 686 0 500 497 501 0
 --.001491029548411076 -.053175 .003419024844274325 0 -1 0 16 500 684 0 ?502 503
 498 499 0 0 1 30 501 703 0 503 499 504 0 +-5e-4 -.047287453482137 .005439117575
48962 0 1 0 16 503 701 0 ?505 506 500 501 0 0 1 30 504 708 0 506 501 507 0 --5e-
4 -.063175 .00493237873647189 0 1 0 16 506 3147 0 ?109 508 503 504 0 0 1 30 507
 725 0 508 504 509 0 -5e-4 -.047287453482137 .00543911757548962 0 1 0 16 508 311
7 0 ?103 510 506 507 0 0 1 30 509 730 0 510 507 511 0 +5e-4 -.053175 .0049323787
3647189 0 1 0 16 510 728 0 ?512 513 508 509 0 0 1 30 511 740 0 513 509 514 0 +.0
02758163788681825 0 .00697441986940881 0 1 0 16 513 738 0 ?515 516 510 511 0 0 1
 30 514 753 0 516 511 517 0 --.002758163788681825 0 .00697441986940881 0 1 0 16
 516 3108 0 ?97 518 513 514 0 0 1 31 517 1000 0 518 514 519 0 --.002151 -.063175
 .00493237873647189 0 -1 0 0 0 -1 .001651 16 518 764 0 ?118 520 516 517 0 0 1 31
 519 1001 0 520 517 521 0 -.002151 -.063175 .00493237873647189 0 -1 0 0 0 -1 .00
1651 16 520 769 0 ?106 522 518 519 0 0 1 31 521 1003 0 522 519 523 0 --.002151 -
.063175 .00543911757548962 0 -1 0 0 0 -1 .001651 16 522 779 0 ?112 524 520 521 0
 0 1 31 523 1006 0 524 521 525 0 -.002151 -.063175 .00543911757548962 0 -1 0 0 0
 -1 .001651 16 524 794 0 ?526 527 522 523 0 0 1 30 525 1791 0 527 523 528 0 +.00
496041399454443 -.0464882546941344 -.002286546085852615 0 1 0 16 527 1789 0 ?529
 530 524 525 0 0 1 30 528 1797 0 530 525 531 0 -.00452156528687083 -.063175 -.00
2033176666343745 0 1 0 16 530 3066 0 ?91 532 527 528 0 0 1 30 531 1809 0 532 528
 533 0 -.003706477145517235 -.053175 -.000418242955419947 0 -1 0 16 532 1807 0 ?
534 535 530 531 0 0 1 30 533 1828 0 535 531 536 0 -.004460413994544425 -.0464882
546941344 -.00315257148963705 0 1 0 16 535 3039 0 ?82 537 532 533 0 0 1 30 536 1
834 0 537 533 538 0 +.00402156528687083 -.053175 -.00289920207012818 0 1 0 16 53
7 1832 0 ?539 540 535 536 0 0 1 30 538 1846 0 540 536 541 0 +.002215447597106145
 -.053175 -.003000781888854405 0 -1 0 16 540 3075 0 ?79 542 537 538 0 0 1 30 541
 1856 0 542 538 543 0 +.00466094288922604 0 -.00587584984350122 0 1 0 16 542 185
4 0 ?544 545 540 541 0 0 1 30 543 1869 0 545 541 546 0 -.00741910667790789 0 -.0
01098570025907646 0 1 0 16 545 3054 0 ?73 547 542 543 0 0 1 31 546 2187 0 547 54
3 548 0 -.00534706528687084 -.063175 -.000603368724695639 0 -1 0 0 0 -1 .001651
 16 547 1875 0 ?88 549 545 546 0 0 1 31 548 2190 0 549 546 550 0 -.0031960652868
70825 -.063175 -.004329010011776285 0 -1 0 0 0 -1 .001651 16 549 1900 0 ?85 551
 547 548 0 0 1 31 550 2191 0 551 548 552 0 -.00578591399454443 -.063175 -.000856
73814420451 0 -1 0 0 0 -1 .001651 16 551 1907 0 ?94 553 549 550 0 0 1 31 552 219
4 0 553 550 554 0 -.003634913994544415 -.063175 -.00458237943128515 0 -1 0 0 0 -
1 .001651 16 553 1932 0 ?555 556 551 552 0 0 1 30 554 2355 0 556 552 208 0 +-.00
4460413994544465 -.0464882546941344 -.00315257148963699 0 1 0 16 556 2353 0 ?557
 206 553 554 0 0 1 30 208 2361 0 206 554 207 0 --.00402156528687087 -.063175 -.0
02899202070128125 0 1 0 16 206 3030 0 ?67 201 556 208 0 0 1 17 67 0 558 559 41 6
5 560 206 0 561 +15 558 3093 0 41 562 0 17 559 0 558 557 67 68 442 440 0 563 -17
 41 0 558 67 557 153 36 42 0 560 -17 560 0 564 565 561 153 67 206 0 0 -17 561 0
 564 560 566 65 64 215 0 442 -15 564 2807 0 560 567 0 17 566 0 564 561 565 62 20
5 201 0 0 -17 64 0 568 569 442 62 561 215 0 570 +17 442 0 568 64 70 65 559 440 0
 0 +15 568 1759 0 461 370 571 17 70 0 568 442 572 68 573 219 0 559 +17 572 0 568
 70 200 45 52 445 0 573 -17 573 0 574 575 563 45 70 219 0 0 -15 574 2849 0 575 5
76 0 17 575 0 574 43 573 155 49 213 0 0 -17 563 0 574 573 43 68 557 556 0 0 -17
 43 0 574 563 575 29 39 283 0 557 +17 557 0 558 41 559 29 563 556 0 0 +17 39 0 3
8 152 36 155 43 283 0 577 -16 283 3222 0 ?43 42 275 276 0 0 1 16 42 3234 0 ?36 5
78 283 284 0 0 1 16 275 3224 0 ?579 283 580 273 0 0 1 17 579 0 424 581 582 157 1
62 275 0 502 +16 580 3239 0 ?159 275 266 267 0 0 1 17 159 0 177 162 168 157 583
 580 0 579 +16 266 3237 0 ?165 580 258 259 0 0 1 31 267 3325 0 580 259 273 0 +0
 -.0594396544963819 0 0 1 0 0 0 1 .00373 17 165 0 177 171 162 163 584 266 0 585
 +16 258 3228 0 ?585 266 250 251 0 0 1 17 585 0 586 587 588 163 171 258 0 505 +1
6 250 3225 0 ?182 258 184 248 0 0 1 17 182 0 589 195 590 172 168 250 0 190 +16 1
84 3227 0 ?183 250 181 243 591 578 1 17 183 0 404 97 188 169 44 184 0 588 +31 24
3 3329 0 184 198 248 0 +0 -.057174409962648 0 0 1 0 0 0 1 .0075 16 591 3216 0 ?5
92 344 34 243 578 184 1 16 578 3221 0 ?577 296 42 243 184 591 1 17 577 0 404 49
 544 155 152 578 0 575 +16 296 3223 0 ?565 304 578 290 0 0 1 17 565 0 564 566 56
0 147 40 296 0 205 +16 304 3220 0 ?593 312 296 297 0 0 1 17 593 0 594 595 596 15
0 146 304 0 544 +16 312 3235 0 ?143 597 304 305 0 0 1 17 143 0 38 140 146 141 59
8 312 0 599 +16 597 3233 0 ?149 321 312 313 0 0 1 17 149 0 38 40 140 147 600 597
 0 565 +16 321 3219 0 ?599 329 597 319 0 0 1 31 313 3318 0 597 305 319 0 +0 -.05
94396544963819 0 0 1 0 0 0 1 .00373 17 599 0 601 602 603 141 140 321 0 539 +16 3
29 3217 0 ?35 34 321 322 0 0 1 17 35 0 604 605 606 11 31 329 0 529 +16 34 3231 0
 ?28 591 329 330 0 0 1 15 604 2285 0 606 607 0 17 605 0 604 608 35 92 529 527 0
 0 -17 606 0 604 35 608 136 73 545 0 0 -17 31 0 30 133 28 136 35 329 0 592 -17 5
29 0 609 33 610 11 605 527 0 0 +15 609 3129 0 33 611 0 17 33 0 609 91 529 134 28
 34 0 612 -17 610 0 609 529 91 92 449 447 0 605 -17 91 0 609 610 33 89 612 530 0
 613 +17 449 0 568 88 94 89 610 447 0 0 +17 88 0 568 614 449 86 613 547 0 615 +1
7 94 0 568 449 616 92 608 551 0 610 +17 616 0 568 94 555 71 76 453 0 608 -17 608
 0 604 606 605 71 94 551 0 0 -17 555 0 568 616 452 74 617 553 0 595 +17 76 0 404
 544 73 74 616 453 0 555 +15 404 1191 0 515 399 618 17 544 0 404 577 76 150 595
 542 0 0 +17 73 0 404 76 592 71 606 545 0 616 +17 592 0 404 73 515 136 133 591 0
 606 +17 515 0 404 592 100 131 619 513 0 0 +17 133 0 30 127 31 131 592 591 0 620
 -15 30 3273 0 130 179 38 17 127 0 30 124 133 125 620 351 0 621 -17 620 0 622 61
9 623 131 127 351 0 515 +15 622 1094 0 623 624 0 17 619 0 622 625 620 98 515 513
 0 0 -17 623 0 622 620 625 125 103 508 0 0 -16 351 3215 0 ?620 358 344 345 0 0 1
 16 344 3218 0 ?626 351 591 337 0 0 1 17 626 0 627 628 612 128 32 344 0 534 +15
 627 2243 0 612 629 0 17 628 0 627 613 626 86 534 532 0 0 -17 612 0 627 626 613
 134 91 530 0 0 -17 32 0 30 28 130 134 626 344 0 33 -17 534 0 630 631 615 128 62
8 532 0 0 +15 630 3206 0 631 407 0 17 631 0 630 115 534 119 130 365 0 632 -17 61
5 0 630 534 115 86 614 458 0 628 -17 115 0 630 615 631 113 632 498 0 614 +17 614
 0 568 106 88 113 615 458 0 633 +16 458 1805 0 ?614 463 455 456 459 463 1 16 463
 2369 0 ?569 459 458 456 458 459 1 17 569 0 568 85 64 77 570 463 0 634 +17 85 0
 568 452 569 83 634 549 0 635 +17 570 0 636 205 79 62 569 463 0 566 -17 634 0 60
1 603 602 77 85 549 0 0 -15 601 2264 0 603 637 0 17 603 0 601 599 634 138 79 540
 0 0 -17 602 0 601 634 599 83 539 537 0 0 -17 539 0 638 598 635 141 602 537 0 0
 +15 638 3099 0 598 639 0 17 598 0 638 82 539 144 143 312 0 596 -17 635 0 638 53
9 82 83 452 450 0 602 -17 82 0 638 635 598 80 596 535 0 452 +17 452 0 568 555 85
 80 635 450 0 617 +17 617 0 594 596 595 80 555 553 0 0 -15 594 2306 0 596 640 0
 17 596 0 594 593 617 144 82 535 0 0 -17 595 0 594 617 593 74 544 542 0 0 -14 64
0 2305 641 ?567 607 594 5 306 -0 0 567 607 24 81 1 641 3971 642 640 643 0 426 64
4 645 14 567 2806 644 ?646 640 564 5 298 -0 0 646 640 24 14 607 2284 647 ?640 63
7 604 5 331 -0 0 640 637 24 51 306 2317 0 640 331 298 648 +.003634913994544415 0
 -.00458237943128515 0 1 0 .001651 0 0 1 13 24 58 0 0 0 0 0 0 9 16 14 16 1461 64
9 ?407 0 636 5 650 +407 423 407 0 24 81 1 649 3974 642 16 651 0 647 652 653 14 4
07 1146 652 ?403 16 630 5 650 +423 16 403 16 24 15 636 3184 0 600 16 0 51 650 60
8 0 423 338 373 0 +0 -.053175 0 0 -1 0 .00373 0 0 -1 14 423 596 654 ?418 655 656
 5 650 +16 407 418 655 24 81 1 654 3976 642 423 657 0 652 658 659 14 655 593 658
 ?423 370 660 5 373 -0 0 423 370 24 15 656 3171 0 583 423 0 17 583 0 656 55 502
 166 159 580 0 590 -17 55 0 656 661 583 53 590 203 0 461 +17 502 0 656 583 661 1
57 581 500 0 0 +17 590 0 589 182 662 166 55 203 0 0 -15 589 2828 0 590 646 0 17
 662 0 589 590 195 53 61 217 0 0 -17 195 0 589 662 182 59 190 196 0 0 -17 61 0 5
68 194 461 59 662 217 0 192 +17 194 0 568 200 61 56 192 443 0 199 +17 461 0 568
 61 118 53 661 459 0 662 +17 192 0 189 190 58 59 194 443 0 195 -17 118 0 568 461
 465 116 663 518 0 661 +17 661 0 656 502 55 116 461 459 0 581 -17 581 0 424 663
 579 116 502 500 0 0 -15 424 1031 0 582 418 0 17 663 0 424 582 581 107 118 518 0
 0 -17 582 0 424 579 663 160 109 506 0 0 -17 109 0 378 664 584 107 582 506 0 465
 +15 378 3159 0 584 371 0 17 664 0 378 505 109 110 465 462 0 587 -17 584 0 378 1
09 505 160 165 266 0 582 -17 465 0 568 118 112 107 664 462 0 663 +17 112 0 568 4
65 665 110 666 522 0 664 +17 665 0 568 112 526 95 100 496 0 666 -17 666 0 586 58
8 587 95 112 522 0 0 -15 586 1073 0 588 427 0 17 588 0 586 585 666 169 97 516 0
 0 -17 587 0 586 666 585 110 505 503 0 0 -17 505 0 378 584 664 163 587 503 0 0 +
17 97 0 404 100 183 95 588 516 0 665 +17 100 0 404 515 97 98 665 496 0 526 +17 5
26 0 568 665 468 98 625 524 0 619 +17 468 0 568 526 106 101 667 466 0 625 +17 62
5 0 622 623 619 101 526 524 0 0 -17 106 0 568 468 614 104 633 520 0 667 +17 667
 0 372 512 103 104 468 466 0 668 -15 372 3165 0 621 366 0 17 512 0 372 621 667 1
22 668 510 0 0 +17 103 0 372 667 621 101 623 508 0 468 +17 668 0 428 633 436 104
 512 510 0 0 -15 428 1052 0 632 422 0 17 633 0 428 632 668 113 106 520 0 0 -17 4
36 0 428 668 632 122 121 430 0 512 +17 632 0 428 436 633 119 115 498 0 0 -17 121
 0 30 130 124 119 436 430 0 631 -17 130 0 30 32 121 128 631 365 0 626 +17 124 0
 30 121 127 122 621 358 0 436 +17 621 0 372 103 512 125 124 358 0 623 -16 365 32
30 0 ?130 430 358 359 0 0 1 14 427 1072 669 ?624 422 586 5 260 -0 0 624 422 24 8
1 1 669 3978 642 427 670 0 658 671 672 14 624 1093 671 ?611 427 622 5 353 -0 0 6
11 427 24 81 1 671 3979 642 624 673 0 669 674 675 14 611 1278 674 ?639 624 609 5
 338 +0 0 639 624 24 51 353 1105 0 624 260 346 676 +.002151 0 .00543911757548962
 0 1 0 .001651 0 0 1 51 346 2254 0 629 353 323 677 +.00534706528687084 -.053175
 -.000603368724695639 0 -1 0 .001651 0 0 -1 141 676 345 676 676 353 14 629 2242
 678 ?637 191 627 5 346 -0 0 637 191 24 51 323 2275 0 637 346 331 679 +.00319606
5286870825 -.053175 -.004329010011776285 0 -1 0 .001651 0 0 -1 141 677 337 677 6
77 346 14 637 2263 680 ?607 629 601 5 323 -0 0 607 629 24 51 331 2296 0 607 323
 306 681 +.00578591399454443 0 -.00085673814420451 0 1 0 .001651 0 0 1 141 679 3
19 679 679 323 141 681 322 681 681 331 81 1 680 3982 642 637 682 0 678 683 684 8
0 255 1 642 685 686 9000 1 1 1 1 1 1 1 1 0 FFFFTFTFFFFFFF1 81 1 682 3853 687 637
 0 680 688 689 690 81 1 678 3981 642 629 688 0 674 680 691 81 1 683 3983 642 646
 692 0 680 693 694 82 255 1 684 1533673885 14 646 2827 683 ?576 567 589 5 252 -0
 0 576 567 24 81 1 692 3857 687 646 0 683 695 696 697 81 1 693 3984 642 576 696
 0 683 698 699 82 1 694 1594818973 14 576 2848 693 ?18 646 574 5 19 -0 0 18 646
 24 81 1 696 3858 687 576 0 693 692 700 701 81 1 698 3985 642 18 700 0 693 702 7
03 82 1 699 1596785053 14 18 2869 698 ?233 576 185 5 6 -0 0 233 576 24 81 1 700
 3859 687 18 0 698 696 704 705 81 1 702 3986 642 233 704 0 698 706 707 82 1 703
 1598751133 14 233 3265 702 ?179 18 708 5 228 -0 0 179 18 24 81 1 704 3860 687 2
33 0 702 700 709 710 81 1 706 3987 642 232 711 0 702 712 713 82 1 707 1697448349
 14 232 3458 706 ?714 179 715 5 234 -0 0 714 179 24 81 1 711 3862 687 232 0 706
 709 716 717 81 1 712 3988 642 714 716 0 706 718 719 82 1 713 697696671 14 714 3
514 712 ?720 232 721 5 722 -0 0 720 232 24 81 1 716 3863 687 714 0 712 711 723 7
24 81 1 718 3989 642 720 723 0 712 725 726 82 1 719 700842399 14 720 3570 718 ?7
27 714 728 5 729 -0 0 727 714 24 81 1 723 3864 687 720 0 718 716 730 731 81 1 72
5 3990 642 727 730 0 718 732 733 82 1 726 703988127 14 727 3626 725 ?734 720 735
 5 736 -0 0 734 720 24 81 1 730 3865 687 727 0 725 723 737 738 81 1 732 3991 642
 734 737 0 725 739 740 82 1 733 707133855 14 734 3683 732 ?741 727 742 5 743 -0
 0 741 727 24 81 1 737 3866 687 734 0 732 730 744 745 81 1 739 3992 642 741 744
 0 732 746 747 82 1 740 710214047 14 741 3739 739 ?0 734 748 5 749 -0 0 0 734 24
 81 1 744 3867 687 741 0 739 737 0 750 81 1 746 3993 642 370 751 0 739 752 753 8
2 1 747 713359775 14 370 413 746 ?655 366 568 5 367 +0 0 655 366 24 81 1 751 384
1 687 370 0 746 754 755 756 81 1 752 3994 642 639 757 0 746 758 759 82 1 753 132
3106716 14 639 1286 752 ?562 611 638 5 314 +0 0 562 611 24 81 1 757 3849 687 639
 0 752 760 761 762 81 1 758 3995 642 562 761 0 752 763 764 82 1 759 1492386205 1
4 562 1597 758 ?191 639 558 5 235 +0 0 191 639 24 81 1 761 3850 687 562 0 758 75
7 765 766 81 1 763 3996 642 191 765 0 758 0 767 82 1 764 1515782557 14 191 1605
 763 ?629 562 189 5 229 +0 0 629 562 24 81 1 765 3851 687 191 0 763 761 688 768
 82 1 767 1514799517 80 1 687 0 769 8001 0 0 0 0 3 5 0 0 0 FFFFTFTFFFFFFF2 81 1
 688 3852 687 629 0 678 765 682 770 83 255 3 768 .776470588235294 .7568627450980
39 .737254901960784 83 3 770 .776470588235294 .756862745098039 .737254901960784
 79 255 15 769 SDL/TYSA_COLOUR83 3 766 .776470588235294 .756862745098039 .737254
901960784 50 235 1655 0 562 229 314 771 +-.00713892874508891 -.0464882546941344
 -.00469901270189218 .499999999999992 0 -.866025403784443 -.866025403784443 0 -.
499999999999992 50 314 1338 0 639 235 338 772 +.00713892874508885 -.046488254694
1344 -.00469901270189228 -.5 0 -.866025403784436 -.866025403784436 0 .5 141 771
 284 771 771 235 50 338 1336 0 611 314 650 773 +.00763892874508885 -.04648825469
41344 -.00383298729810784 .5 0 .866025403784436 .866025403784436 0 -.5 141 772 3
05 772 772 314 141 773 330 773 773 338 81 1 760 3848 687 611 0 674 673 757 774 8
3 3 762 .776470588235294 .756862745098039 .737254901960784 81 1 674 3980 642 611
 760 0 671 678 775 81 1 673 3847 687 624 0 671 670 760 776 83 3 774 .77647058823
5294 .756862745098039 .737254901960784 81 1 670 3846 687 427 0 669 777 673 778 8
3 3 776 .776470588235294 .756862745098039 .737254901960784 81 1 777 3845 687 422
 0 426 779 670 780 83 3 778 .776470588235294 .756862745098039 .737254901960784 8
1 1 426 3970 642 422 777 0 421 641 781 81 1 779 3844 687 418 0 421 657 777 782 8
3 3 780 .776470588235294 .756862745098039 .737254901960784 81 1 421 3969 642 418
 779 0 416 426 783 81 1 657 3843 687 423 0 654 755 779 784 83 3 782 .77647058823
5294 .756862745098039 .737254901960784 81 1 755 3842 687 655 0 658 751 657 785 8
3 3 784 .776470588235294 .756862745098039 .737254901960784 81 1 658 3977 642 655
 755 0 654 669 786 83 3 785 .776470588235294 .756862745098039 .737254901960784 8
2 1 786 1328742813 81 1 416 3968 642 377 787 0 414 421 788 82 1 783 1346568605 8
1 1 787 3838 687 377 0 416 789 790 791 81 1 414 3967 642 411 789 0 410 416 792 8
2 1 788 1170801046 81 1 789 3837 687 411 0 414 793 787 794 81 1 410 3966 642 382
 793 0 406 414 795 82 1 792 1164968341 81 1 793 3836 687 382 0 410 796 789 797 8
1 1 406 3965 642 403 798 0 402 410 799 82 1 795 1160446357 81 1 798 3829 687 403
 0 406 800 801 802 81 1 402 3964 642 399 801 0 398 406 803 82 1 799 324927892 81
 1 801 3830 687 399 0 402 798 804 805 81 1 398 3963 642 395 804 0 394 402 806 82
 1 803 324796829 81 1 804 3831 687 395 0 398 801 807 808 81 1 394 3962 642 391 8
07 0 390 398 809 82 1 806 324665757 81 1 807 3832 687 391 0 394 804 810 811 81 1
 390 3961 642 387 810 0 386 394 812 82 1 809 324534687 81 1 810 3833 687 387 0 3
90 807 813 814 81 1 386 3960 642 383 813 0 381 390 815 82 1 812 -868875962 81 1
 813 3834 687 383 0 386 810 796 816 81 1 381 3959 642 379 796 0 376 386 817 82 1
 815 324272543 81 1 796 3835 687 379 0 381 813 793 818 81 1 376 3958 642 371 790
 0 369 381 819 82 1 817 324141464 81 1 790 3839 687 371 0 376 787 754 820 81 1 3
69 3957 642 366 754 0 231 376 821 82 1 819 1323958685 81 1 754 3840 687 366 0 36
9 790 751 822 81 1 231 3956 642 179 709 0 0 369 823 82 1 821 1323499933 81 1 709
 3861 687 179 0 231 704 711 824 82 1 823 1678508445 83 3 824 .776470588235294 .7
56862745098039 .737254901960784 83 3 822 .776470588235294 .756862745098039 .7372
54901960784 83 3 820 .776470588235294 .756862745098039 .737254901960784 83 3 818
 .776470588235294 .756862745098039 .737254901960784 83 3 816 .776470588235294 .7
56862745098039 .737254901960784 83 3 814 .776470588235294 .756862745098039 .7372
54901960784 83 3 811 .776470588235294 .756862745098039 .737254901960784 83 3 808
 .776470588235294 .756862745098039 .737254901960784 83 3 805 .776470588235294 .7
56862745098039 .737254901960784 81 1 800 3828 687 407 0 652 651 798 825 83 3 802
 .776470588235294 .756862745098039 .737254901960784 81 1 652 3975 642 407 800 0
 649 654 826 81 1 651 3827 687 16 0 649 0 800 827 83 3 825 .776470588235294 .756
862745098039 .737254901960784 83 3 827 .776470588235294 .756862745098039 .737254
901960784 82 1 826 1484980637 83 3 797 .776470588235294 .756862745098039 .737254
901960784 83 3 794 .776470588235294 .756862745098039 .737254901960784 83 3 791 .
776470588235294 .756862745098039 .737254901960784 82 1 781 1348534685 82 1 775 1
493369245 83 3 756 .776470588235294 .756862745098039 .737254901960784 83 3 750 .
776470588235294 .756862745098039 .737254901960784 15 748 3742 0 828 741 829 51 7
49 3761 0 741 0 743 0 +.0250842032298846 0 .00399283712688686 0 1 0 .0032639 0 0
 1 51 743 3705 0 734 749 736 0 +.016 0 .0197271386673283 0 1 0 .0032639 0 0 1 51
 736 3648 0 727 743 729 0 +-.016 0 .0197271386673283 0 1 0 .0032639 0 0 1 51 729
 3592 0 720 736 722 0 +-.0250842032298846 0 .00399283712688686 0 1 0 .0032639 0
 0 1 51 722 3536 0 714 729 234 0 +-.00908420322988462 0 -.0237199757942152 0 1 0
 .0032639 0 0 1 51 234 3480 0 232 722 228 0 +.00908420322988462 0 -.023719975794
2152 0 1 0 .0032639 0 0 1 17 828 0 748 828 828 0 830 831 0 0 +15 829 3743 0 832
 741 0 17 832 0 829 832 832 0 833 21 0 0 -17 833 0 388 833 833 0 832 21 0 0 +16
 21 3736 0 ?833 834 831 7 0 0 1 16 834 3681 0 ?835 836 21 837 0 0 1 16 831 3737
 0 ?828 21 0 838 0 0 1 31 838 3763 0 831 0 837 0 +.0250842032298846 -10887110044
42136e-35 .00399283712688686 0 1 0 0 0 1 .0032639 31 837 3707 0 834 838 839 0 +.
016 -1088711004442136e-35 .0197271386673283 0 1 0 0 0 1 .0032639 31 839 3651 0 8
40 837 841 0 +-.016 -1088711004442136e-35 .0197271386673283 0 1 0 0 0 1 .0032639
 16 840 3624 0 ?842 843 836 839 0 0 1 31 841 3649 0 843 839 844 0 +-.016 -.00952
5 .0197271386673283 0 1 0 0 0 1 .0032639 16 843 3623 0 ?845 846 840 841 0 0 1 31
 844 3595 0 846 841 847 0 +-.0250842032298846 -1088711004442136e-35 .00399283712
688686 0 1 0 0 0 1 .0032639 16 846 3568 0 ?848 849 843 844 0 0 1 31 847 3593 0 8
49 844 850 0 +-.0250842032298846 -.009525 .00399283712688686 0 1 0 0 0 1 .003263
9 16 849 3567 0 ?851 852 846 847 0 0 1 31 850 3539 0 852 847 853 0 +-.0090842032
2988462 -1088711004442136e-35 -.0237199757942152 0 1 0 0 0 1 .0032639 16 852 351
2 0 ?854 855 849 850 0 0 1 31 853 3537 0 855 850 856 0 +-.00908420322988462 -.00
9525 -.0237199757942152 0 1 0 0 0 1 .0032639 16 855 3511 0 ?857 858 852 853 0 0
 1 31 856 3483 0 858 853 859 0 +.00908420322988462 -1088711004442136e-35 -.02371
99757942152 0 1 0 0 0 1 .0032639 16 858 3456 0 ?860 861 855 856 0 0 1 31 859 348
1 0 861 856 242 0 +.00908420322988462 -.009525 -.0237199757942152 0 1 0 0 0 1 .0
032639 16 861 3455 0 ?862 197 858 859 0 0 1 31 242 3331 0 197 859 198 0 +0 -.057
15 0 0 1 0 0 0 1 .007540625 16 197 3212 0 ?863 181 861 242 0 0 1 17 863 0 180 86
3 863 0 864 197 0 0 +15 180 3276 0 863 179 865 17 864 0 708 864 864 0 863 197 0
 0 -15 708 3268 0 864 233 866 15 866 3269 0 867 233 0 17 867 0 866 867 867 0 868
 227 0 0 -17 868 0 400 868 868 0 867 227 0 0 +16 227 3213 0 ?868 440 437 221 0 0
 1 15 400 3190 0 868 395 869 15 869 85 0 480 395 0 17 480 0 869 480 480 0 870 47
8 0 0 +17 870 0 871 870 870 0 480 478 0 0 -15 871 140 0 870 391 872 15 872 80 0
 477 391 0 17 477 0 872 477 477 0 873 475 0 0 +17 873 0 392 873 873 0 477 475 0
 0 -15 392 141 0 873 387 874 15 874 75 0 474 387 0 17 474 0 874 474 474 0 875 47
2 0 0 +17 875 0 876 875 875 0 474 472 0 0 -15 876 142 0 875 383 0 15 865 3277 0
 877 179 0 17 877 0 865 877 877 0 439 437 0 0 -17 439 0 660 439 439 0 877 437 0
 0 +15 660 3177 0 439 655 878 15 878 640 0 457 655 0 17 457 0 878 457 457 0 879
 455 0 0 +17 879 0 571 879 879 0 457 455 0 0 -15 571 1758 0 879 370 0 17 862 0 8
80 862 862 0 881 861 0 0 +15 880 3443 0 862 383 882 17 881 0 883 881 881 0 862 8
61 0 0 -15 883 3462 0 881 232 0 15 882 242 0 492 383 876 17 492 0 882 492 492 0
 884 490 0 0 +17 884 0 885 884 884 0 492 490 0 0 -15 885 261 0 884 377 0 17 860
 0 715 860 860 0 886 858 0 0 +15 715 3461 0 860 232 883 17 886 0 887 886 886 0 8
60 858 0 0 -15 887 3430 0 886 391 871 17 857 0 888 857 857 0 889 855 0 0 +15 888
 3499 0 857 383 880 17 889 0 890 889 889 0 857 855 0 0 -15 890 3518 0 889 714 0
 17 854 0 721 854 854 0 891 852 0 0 +15 721 3517 0 854 714 890 17 891 0 892 891
 891 0 854 852 0 0 -15 892 3486 0 891 391 887 17 851 0 893 851 851 0 894 849 0 0
 +15 893 3555 0 851 383 888 17 894 0 895 894 894 0 851 849 0 0 -15 895 3574 0 89
4 720 0 17 848 0 728 848 848 0 896 846 0 0 +15 728 3573 0 848 720 895 17 896 0 8
97 896 896 0 848 846 0 0 -15 897 3542 0 896 391 892 17 845 0 898 845 845 0 899 8
43 0 0 +15 898 3611 0 845 383 893 17 899 0 900 899 899 0 845 843 0 0 -15 900 363
0 0 899 727 0 17 842 0 735 842 842 0 901 840 0 0 +16 836 3680 0 ?902 840 834 22
 0 0 1 17 902 0 903 902 902 0 904 836 0 0 +31 22 3656 0 836 221 7 0 +.016 -.0095
25 .0197271386673283 0 1 0 0 0 1 .0032639 15 903 3654 0 902 383 898 17 904 0 905
 904 904 0 902 836 0 0 -15 905 3687 0 904 734 0 15 735 3629 0 842 727 900 17 901
 0 906 901 901 0 842 840 0 0 -15 906 3598 0 901 391 897 17 835 0 742 835 835 0 9
07 834 0 0 +15 742 3686 0 835 734 905 17 907 0 908 907 907 0 835 834 0 0 -15 908
 3667 0 907 391 906 15 388 3710 0 833 383 903 17 830 0 396 830 830 0 828 831 0 0
 -15 396 3723 0 830 391 908 83 3 745 .776470588235294 .756862745098039 .73725490
1960784 83 3 738 .776470588235294 .756862745098039 .737254901960784 83 3 731 .77
6470588235294 .756862745098039 .737254901960784 83 3 724 .776470588235294 .75686
2745098039 .737254901960784 83 3 717 .776470588235294 .756862745098039 .73725490
1960784 83 3 710 .776470588235294 .756862745098039 .737254901960784 83 3 705 .77
6470588235294 .756862745098039 .737254901960784 83 3 701 .776470588235294 .75686
2745098039 .737254901960784 51 19 2860 0 576 252 6 909 +-.00363491399454448 0 -.
0045823794312851 0 1 0 .001651 0 0 1 51 252 2839 0 646 298 19 910 +-.00534706528
687085 -.053175 -.000603368724695565 0 -1 0 .001651 0 0 -1 141 909 276 909 909 1
9 51 298 2818 0 567 306 252 911 +-.003196065286870885 -.053175 -.004329010011776
24 0 -1 0 .001651 0 0 -1 141 910 248 910 910 252 141 911 290 911 911 298 81 1 69
5 3856 687 567 0 644 643 692 912 83 3 697 .776470588235294 .756862745098039 .737
254901960784 81 1 644 3972 642 567 695 0 641 647 913 81 1 643 3855 687 640 0 641
 689 695 914 83 3 912 .776470588235294 .756862745098039 .737254901960784 81 1 68
9 3854 687 607 0 647 682 643 915 83 3 914 .776470588235294 .756862745098039 .737
254901960784 81 1 647 3973 642 607 689 0 644 649 916 83 3 915 .776470588235294 .
756862745098039 .737254901960784 82 1 916 1535639965 82 1 913 1592852893 82 1 69
1 1531707805 83 3 690 .776470588235294 .756862745098039 .737254901960784 79 14 6
86 SWEntUnchanged82 1 675 1352466845 82 1 672 1350500765 17 200 0 568 572 194 50
 199 26 0 186 +17 186 0 185 199 25 50 188 211 0 0 -17 188 0 404 183 52 37 186 21
1 0 0 +17 52 0 404 188 49 50 572 445 0 200 +17 49 0 404 52 577 45 575 213 0 572
 +51 373 607 0 655 650 367 0 +0 -.053175 0 0 -1 0 .00273 0 0 -1 82 1 659 1328546
205 17 600 0 636 79 205 138 149 597 0 603 -17 79 0 636 570 600 77 603 540 0 569
 +17 205 0 636 600 570 147 566 201 0 0 +82 1 653 1507393949 141 648 297 648 648
 306 82 1 645 1537606045 17 613 0 627 612 628 89 88 547 0 449 -15 38 3274 0 149
 179 177 15 618 208 0 486 399 0 17 486 0 618 486 486 0 917 484 0 0 +17 917 0 918
 917 917 0 486 484 0 0 -15 918 227 0 917 411 0 17 140 0 38 149 143 138 599 321 0
 600 -17 40 0 38 36 149 153 565 296 0 41 -17 146 0 38 143 152 144 593 304 0 598
 -17 152 0 38 146 39 150 577 578 0 593 -17 168 0 177 159 174 166 182 250 0 583 -
17 171 0 177 44 165 169 585 258 0 183 -17 162 0 177 165 159 160 579 275 0 584 -1
7 495 0 919 495 495 0 920 493 0 0 +15 919 248 0 495 379 0 17 920 0 417 920 920 0
 495 493 0 0 -15 417 260 0 920 377 885 17 489 0 412 489 489 0 921 487 0 0 +15 41
2 214 0 489 382 922 17 921 0 415 921 921 0 489 487 0 0 -15 415 226 0 921 411 918
 15 922 192 0 923 382 0 17 923 0 922 923 923 0 483 481 0 0 -17 483 0 408 483 483
 0 923 481 0 0 +15 408 173 0 483 403 924 15 924 144 0 925 403 0 17 925 0 924 925
 925 0 471 469 0 0 -17 471 0 384 471 471 0 925 469 0 0 +15 384 65 0 471 379 919
 141 429 251 429 429 260 40 6 354 0 1 6 .0001600379930249095 .386213100132156 ??
.000500000012113871 -.0583990529891778 .00543891757548962 .000657708169891967 -.
0579684998260217 .00614330541274088 .001054408980518972 -.0576213780771849 .0066
7333357603149 .001607138656910825 -.0573665993268318 .00699796838281316 .0021915
2213556985 -.0572221110214568 .00708962021303034 .002758363788681825 -.057174409
9692125 .00697434076063179 41 1 355 L?.000500000012113871 -.0583990529891778 .00
543891757548962 41 1 356 L?.002758363788681825 -.0571744099692125 .0069743407606
3179 204 24 357 4 4.71226784168058 -.0583990529891778 .0916723928760511 -.001249
052989177814 5.15303294994386 -.0579684998260217 .1066547034479044 -.00081849982
6021703 5.55676473107894 -.0576213780771849 .156707834705094 -.00047137807718490
8 5.94750319111031 -.0573665993268318 .2257434425959955 -.0002165993268317645 .0
24546459810696 -.0572221110214568 .299799886093307 -721110214567515e-19 .3767241
413196425 -.0571744099692125 .37662254741708 -2440996921254265e-20 40 5 347 0 1
 5 .0001198224206148614 .3325987927852055 ??.00452176528687083 -.058701865878209
7 -.002033292117748565 .0040543611373693 -.0590551705703949 -.00163036287358915
 .003793363249294125 -.0592970821688283 -.001161769099364172 .00369993480523755
 -.059416436365143 -.000716338528070193 .00370649972608323 -.0594396544857475 -.
0004180429554199545 41 1 348 L?.00452176528687083 -.0587018658782097 -.002033292
117748565 41 1 349 L?.00370649972608323 -.0594396544857475 -.0004180429554199545
 204 20 350 4 5.75972640486046 .00552686587820964 1.99337393670842 -.00155186587
820965 5.38373913367867 .00588017057039485 1.953133873034255 -.00190517057039485
5 5.05741321950357 .00612208216882825 1.867989594506855 -.00214708216882826 4.78
086756522042 .00624143636514297 1.76203865000209 -.002266436365142975 4.59990128
6235 .00626465448574752 1.68310815264069 -.00228965448574753 40 2 339 0 1 2 1235
43147707881e-21 .000398720991268631 ??.00452136528687083 -.058702141984206 -.002
033061196289905 .00496061399454443 -.0583987951420792 -.00228666155590645 41 1 3
40 L?.00452136528687083 -.058702141984206 -.002033061196289905 41 1 341 L?.00496
061399454443 -.0583987951420792 -.00228666155590645 204 8 342 4 -.00359985220363
5835 -.01221388729007152 1.99336454406426 -.00155214198420595 -.0030926514844027
45 -.01191054044794474 2.002729933983525 -.001248795142079178 40 7 332 0 1 7 .00
0108748105228489 .3425849347316115 ??.00741913628001099 -.0571744099684488 -.001
098370025907646 .00726616505852702 -.0572118706280344 -.00158794111710494 .00697
783732182375 -.057319475654968 -.00199915653598897 .00657898006994268 -.05749225
73174895 -.002304787590892165 .00608347605994183 -.0577333172426151 -.0024807017
57478045 .00552223052595809 -.058041913669658 -.00248654550349403 .0049602139945
4443 -.0583990715071658 -.002286430597146745 41 1 333 L?.00741913628001099 -.057
1744099684488 -.001098370025907646 41 1 334 L?.00496021399454443 -.0583990715071
658 -.002286430597146745 204 28 335 4 1.71767877352016 -.0571744099684488 1.7177
74274756025 -2440996844878845e-20 2.029610131711605 -.0572118706280344 1.7859527
41412625 -618706280344402e-19 2.33499043273594 -.057319475654968 1.8498230636486
8 -.0001694756549679555 2.6405332516396 -.0574922573174895 1.907761515301345 -.0
003422573174894515 2.960370940196345 -.0577333172426151 1.957989003343685 -.0005
8331724261511 3.301990914505745 -.058041913669658 1.9938824056045 -.000891913669
658013 3.665331313763775 -.0583990715071658 2.00272219004594 -.00124907150716575
2 40 5 324 0 1 5 .0001083770288297742 .362628724800197 ??.002215247597106145 -.0
59439654480156 -.003000929570144575 .00262349263565088 -.0593838982915114 -.0027
8047471703 .003054313537002435 -.0592376986018399 -.002684106536976245 .00362107
4950401375 -.058954715808225 -.002733651811902145 .004021765286870785 -.05870186
58670603 -.00289931755883402 41 1 325 L?.002215247597106145 -.059439654480156 -.
003000929570144575 41 1 326 L?.004021765286870785 -.0587018658670603 -.002899317
55883402 204 20 327 4 3.7777077999132 .00626465448015603 2.50569474518186 -.0022
8965448015603 3.495753639153985 .0062088982915114 2.385235736386925 -.0022338982
9151141 3.22755660677804 .0060626986018399 2.291770019594775 -.00208769860183990
5 2.88123558940478 .00577971580822494 2.21744406806222 -.00180471580822495 2.617
853993415845 .00552686586706028 2.19541626769913 -.001551865867060295 40 2 315 0
 1 2 1235431477079922e-22 .000398720991268831 ??.00446061399454442 -.05839879514
20792 -.00315268695969089 .00402136528687083 -.058702141984206 -.002899086600074
34 41 1 316 L?.00446061399454442 -.0583987951420792 -.00315268695969089 41 1 317
 L?.00402136528687083 -.058702141984206 -.00289908660007434 204 8 318 4 .0030926
5148440275 -.01191054044794474 2.186060270802875 -.00124879514207918 .0035998522
0363584 -.01221388729007152 2.19542566072214 -.001552141984205955 40 6 307 0 1 6
 .0001600375819086465 .386302348133565 ??.00446021399454442 -.0583990714960066 -
.00315245603823223 .0049913865768673 -.057968517639942 -.00364121890650402 .0052
5206551670231 -.0576213928234317 -.004249780642378145 .00525685464196618 -.05736
66088756715 -.00489077777148992 .00504404431427934 -.057222115463713 -.005442700
73289505 .00466069070736096 -.0571744099773494 -.00587604984350122 41 1 308 L?.0
0446021399454442 -.0583990714960066 -.00315245603823223 41 1 309 L?.004660690707
36096 -.0571744099773494 -.00587604984350122 204 24 310 4 .523458902319127 -.058
3990714960066 2.186068014427385 -.001249071496006586 .964223737696664 -.05796851
7639942 2.20104814084753 -.000818517639942009 1.367955289576926 -.05762139282343
17 2.25109995329057 -.000471392823431703 1.758694906589675 -.0573666088756715 2.
32013502590277 -.0002166088756714825 2.118925086725375 -.057222115463713 2.39419
146087526 -721154637130301e-19 2.471183923092855 -.0571744099773494 2.4710318878
97715 -2440997734938255e-20 40 5 299 0 1 5 .000119822421099039 .3325987930642715
 ??-.00402176528687083 -.0587018658670603 -.002899317558833965 -.003439116251188
685 -.0590551705616351 -.002695998306752605 -.00290280319169232 -.05929708216383
11 -.00270426438752256 -.002470334776694655 -.0594164363632434 -.002846068264235
445 -.00221524759710619 -.059439654480156 -.003000929570144545 41 1 300 L?-.0040
2176528687083 -.0587018658670603 -.002899317558833965 41 1 301 L?-.0022152475971
0619 -.059439654480156 -.003000929570144545 204 20 302 4 3.66533131376373 .00552
686586706028 4.08776903948047 -.00155186586706029 3.289344041443895 .00588017056
163508 4.047528977324835 -.00190517056163508 2.963018125520365 .0061220821638310
9 3.96238469970263 -.002147082163831095 2.6864724702837 .00624143636324334 3.856
433755552335 -.00226643636324335 2.50547750726637 .00626465448015603 3.777490561
99774 -.00228965448015603 40 2 291 0 1 2 1235431477079922e-22 .00039872099126867
9 ??-.00402136528687087 -.058702141984206 -.002899086600074285 -.004460613994544
465 -.0583987951420792 -.003152686959690825 41 1 292 L?-.00402136528687087 -.058
702141984206 -.002899086600074285 41 1 293 L?-.004460613994544465 -.058398795142
0792 -.003152686959690825 204 8 294 4 -.003599852203635835 -.0122138872900715 4.
08775964645746 -.00155214198420595 -.003092651484402745 -.01191054044794474 4.09
7125036376725 -.001248795142079176 40 7 285 0 1 7 .0001088012314327166 .34258378
3118115 ??-.00466069070736104 -.0571744099773494 -.00587604984350116 -.005008211
37487456 -.0572118527398757 -.00549881562937996 -.00522020418614894 -.0573194407
189339 -.00504352583797466 -.00528549753318311 -.0574922056150563 -.004545298681
89729 -.00519013448439912 -.057733248286738 -.004028222208164895 -.0049146194160
5819 -.0580418286534985 -.003539232732997465 -.004460213994544465 -.058399071496
0066 -.003152456038232165 41 1 286 L?-.00466069070736104 -.0571744099773494 -.00
587604984350116 41 1 287 L?-.004460213994544465 -.0583990714960066 -.00315245603
8232165 204 28 288 4 3.812001384086745 -.0571744099773494 3.812153419281885 -244
0997734938255e-20 4.123930482198685 -.0572118527398757 3.88033174053133 -6185273
98757449e-19 4.429310015530035 -.0573194407189339 3.944202970847705 -.0001694407
189339335 4.73485043862217 -.0574922056150563 4.00214290060227 -.000342205615056
3045 5.05468356067404 -.057733248286738 4.052372947536215 -.00058324828673801 5.
39629727161671 -.0580418286534985 4.088271224737365 -.000891828653498531 5.75972
640486048 -.0583990714960066 4.097117292752215 -.001249071496006588 40 5 278 0 1
 5 .000119821617598844 .332598329945055 ??-.000500000012113871 -.058701884368791
 .00493257873647155 -.000615255112632921 -.0590551850978521 .004326335304921075
 -.000890574944187378 -.0592970904562083 .003866015909531755 -.00122961698092244
6 -.0594164395154551 .003562395403669795 -.001491229548411076 -.0594396544838851
 .003418937640422835 41 1 279 L?-.000500000012113871 -.058701884368791 .00493257
873647155 41 1 280 L?-.001491229548411076 -.0594396544838851 .003418937640422835
 204 20 281 4 1.570917465498805 .00552688436879102 6.18216351313126 -.0015518843
6879103 1.194932081780576 .00588018509785213 6.1419209310716 -.00190518509785213
 .868609067265472 .00612209045620831 6.05677515135483 -.002147090456208315 .5920
64994303706 .00624143951545508 5.95082361900073 -.002266439515455095 .4111008368
00896 .00626465448388509 5.87189382286594 -.002289654483885095 40 3 269 0 1 3 11
0590749542555e-19 .00586675750045465 ??-5e-4 -.0600931810356477 .002594611577751
285 -5e-4 -.0586291589228093 .00505421955898725 -5e-4 -.0558173899660834 .009745
64272177148 41 1 270 L?-5e-4 -.0600931810356477 .002594611577751285 41 1 271 L?-
5e-4 -.0558173899660834 .00974564272177148 204 12 272 4 -.00593738842224876 -.01
28057275535107 6.09281191137023 -.00294318103564774 -.003477780441012795 -.01134
17054406723 6.18457890402875 -.001479158922809308 .00121364272177144 -.008529936
48394641 6.23192527173024 .001332610033916564 40 7 261 0 1 7 .000108742729889925
6 .3425848106299685 ??-.002758363788681825 -.0571744099692125 .00697434076063179
 -.00225789845474659 -.0572118687000192 .00708665322620338 -.00175761136472491 -
.057319471889698 .00704256585393093 -.00129349727781277 -.0574922517452911 .0068
4996486752427 -.000893396797389101 -.0577333098110055 .00650880686906174 -.00060
7709299211074 -.0580419045072609 .00602567943314696 -.000500000012113871 -.05839
90529891778 .00543891757548962 41 1 262 L?-.002758363788681825 -.057174409969212
5 .00697434076063179 41 1 263 L?-.000500000012113871 -.0583990529891778 .0054389
1757548962 204 28 264 4 5.90646116585995 -.0571744099692125 5.90656275976251 -24
4099692125421e-19 6.21839228046212 -.0572118687000192 5.97474121075237 -61868700
0191655e-19 .240587191549397 -.057319471889698 6.03861163085708 -.00016947188969
8012 .5461297522275 -.0574922517452911 6.09655024181344 -.0003422517452910595 .8
65966948627017 -.0577333098110055 6.14677800564777 -.000583309811005512 1.207586
247913456 -.0580419045072609 6.18267193332099 -.00089190450726088 1.570917465499
01 -.0583990529891778 6.19151291430354 -.001249052989177816 40 5 253 0 1 5 .0001
08379502123073 .362629911903014 ??-.003706499726083235 -.0594396544857475 -.0004
180429554199035 -.003719717005174935 -.0593838858116974 -.000881826208095363 -.0
0385168521494994 -.0592376750661383 -.00130311113480218 -.004177996414676035 -.0
589546787401273 -.00176916414931566 -.00452176528687086 -.0587018658782097 -.002
0332921177485 41 1 254 L?-.003706499726083235 -.0594396544857475 -.0004180429554
199035 41 1 255 L?-.00452176528687086 -.0587018658782097 -.0020332921177485 204
 20 256 4 1.68328402094457 .00626465448574752 4.60007715453891 -.002289654485747
53 1.401326400215626 .00620888581169736 4.479618067218835 -.00223388581169737 1.
133127206273672 .00606267506613829 4.38615506500891 -.002087675066138295 .786800
148701034 .00577967874012726 4.311833640513505 -.001804678740127265 .52345890231
9114 .00552686587820964 4.28981137047118 -.00155186587820965 40 2 244 0 1 2 1235
431477086002e-22 .000398720991268783 ??-.00496061399454446 -.0583987951420792 -.
002286661555906385 -.00452136528687087 -.058702141984206 -.002033061196289845 41
 1 245 L?-.00496061399454446 -.0583987951420792 -.002286661555906385 41 1 246 L?
-.00452136528687087 -.058702141984206 -.002033061196289845 204 8 247 4 .00309265
148440275 -.01191054044794474 4.280455373196075 -.001248795142079178 .0035998522
03635835 -.0122138872900715 4.28982076311534 -.00155214198420595 141 236 198 236
 236 229 19 17 54 0 1 0 9 5 S0 141 20 27 20 20 6 74 4 CI16 index_map_offset0 0 1
 dCCZ20 15 10 0 0 763 926 927 928 929 930 931 744 13 2 0 0 0 0 0 0 0 0 0 0 81 5
 926 288 932 1 0 927 0 0 933 0 0 0 0 81 2 927 1761 934 1 926 928 0 0 0 935 81 2
 928 2895 936 1 927 929 0 0 0 937 81 1 929 3779 938 1 928 930 0 0 939 81 2 930 3
821 940 1 929 931 0 0 0 941 81 2 931 3824 942 1 930 13 0 0 0 0 81 2 13 3954 943
 1 931 2 0 0 944 0 80 2 943 945 946 8004 0 0 0 0 3 5 0 0 0 FFTFFFFFFFFFFF2 3 83
 1 944 8027 79 16 946 SDL/TYSA_DENSITY80 2 942 947 948 9000 0 0 0 0 3 5 0 0 0 FF
TFFFFFFFFFFF9 1 79 16 948 BODY_RECIPE_200180 2 940 949 950 9000 0 0 0 0 3 5 0 0
 0 FFTFFFFFFFFFFF9 1 82 1 941 1 79 24 950 BODY_IN_LIGHTWEIGHT_PERM80 1 938 951 9
52 9000 1 1 1 1 1 1 1 1 0 FFTFFFFFFFFFFF1 82 1 939 4747 79 10 952 BODY_MATCH80 2
 936 953 954 9000 0 0 0 0 3 5 0 0 0 FFTFFFFFFFFFFF9 1 82 1 937 152 79 30 954 LAS
T_BODY_MODIFYING_FEATURE_ID80 2 934 955 956 9000 0 0 0 0 3 5 0 0 0 FFTFFFFFFFFFF
T9 1 82 1 935 557 79 19 956 ENT_TIME_STAMP_200180 5 932 957 958 9000 0 0 0 0 3 6
 0 0 0 FFTTTTTTFTTFTT2 2 2 2 2 83 1 933 1 79 19 958 BODY_SCALING_FACTOR80 2 12 9
59 960 9000 0 0 0 0 3 5 0 0 0 FFTFFFFFFFFFFF9 1 82 1 14 109 79 12 960 ATOM_ID_20
011 0 
