**ABCDEFGHIJKLMNOPQRSTUVWXYZabcdefghijklmnopqrstuvwxyz**************************
**PARASOLID !"#$%&'()*+,-./:;<=>?@[\]^_`{|}~0123456789**************************
**PART1;
MC=AMD64;
MC_MODEL=AMD64 Family 25 Model 33 Stepping 0, AuthenticAMD;
MC_ID=unknown;
OS=Windows_NT;
OS_RELEASE=unknown;
FRU=Parasolid Version 31.1, build 290,  3- 9-2020;
APPL=SOLIDWORKS 2020-2020128;
SITE=;
USER=unknown;
FORMAT=text;
GUISE=transmit;
KEY=ThroatlessEngineBasePlate;
FILE=ThroatlessEngineBasePlate.x_t;
DATE=Sun May 23 13:09:11 2021;
**PART2;
SCH=SCH_3101290_31100;
USFLD_SIZE=0;
**PART3;
**END_OF_HEADER*****************************************************************
T51 : TRANSMIT FILE created by modeller version 310129023 SCH_3101290_31100_1300
6222 0 12 34 CCCCCCI4 mesh1006 0 I8 polyline1008 0 CCCCCCCDI5 owner1040 0 CCCCCC
I13 boundary_mesh1006 0 I17 boundary_polyline1008 0 CCCA16 index_map_offset0 0 1
 dA9 index_map82 0 A17 node_id_index_map82 0 A20 schema_embedding_map82 0 A5 chi
ld12 0 A14 lowest_node_id0 0 1 dA16 mesh_offset_data206 0 Z1 1330 2 3 0 0 0 0 0
 0 1e3 1e-8 0 4 0 1 0 1 1 5 6 7 0 0 0 8 9 0 0 0 0 0 0 0 0 81 255 2 2 1312 10 1 1
1 0 0 0 0 12 70 11 CI9 list_type0 0 1 uI10 notransmit0 0 1 lCCCDCCDI12 finger_in
dex0 0 1 dI12 finger_block1012 0 CZ3 0 4 T1 0 0 8 20 1 13 13 13 255 5 31 0 1 0 1
4 0 0 15 0 51 255 6 30 0 16 17 0 0 -0 .02 0 0 -1 0 .0762 0 0 -1 31 255 7 983 0 1
8 19 0 0 +0 .002 0 0 -1 0 0 0 -1 .0386715 19 8 CCCCCCCA5 owner12 0 Z8 9 0 1 15 0
 20 V0 16 255 9 5 0 ?21 0 22 23 0 0 1 17 255 21 0 24 21 21 0 25 9 0 0 +16 22 20
 0 ?26 9 27 28 0 0 1 31 23 7 0 9 29 28 0 +0 .02 0 0 1 0 0 0 1 .0762 31 29 74 0 2
7 30 23 0 +0 .02 0 0 1 0 0 0 1 .0386715 31 28 25 0 22 23 19 0 +0 0 0 0 1 0 0 0 1
 .0762 31 19 141 0 31 28 7 0 +.0597557528611267 .02 .03449999999999925 0 1 0 0 0
 1 .002552699999999945 16 31 178 0 ?32 27 33 19 0 0 1 17 32 0 34 32 32 0 35 31 0
 0 +16 27 54 0 ?36 22 31 29 0 0 1 16 33 179 0 ?37 31 38 30 0 0 1 17 37 0 39 37 3
7 0 40 33 0 0 +16 38 245 0 ?41 33 42 43 0 0 1 31 30 204 0 33 43 29 0 +.059755752
8611267 116647607618786e-34 .03449999999999925 0 -1 0 0 0 -1 .002552699999999945
 31 43 270 0 38 44 30 0 +.0345000000000007 .02 .0597557528611259 0 1 0 0 0 1 .00
2552699999999945 31 44 272 0 42 45 43 0 +.0345000000000007 116647607618786e-34 .
0597557528611259 0 -1 0 0 0 -1 .002552699999999945 16 42 246 0 ?46 38 47 44 0 0
 1 31 45 338 0 47 48 44 0 +722736637140529e-30 .02 .069 0 1 0 0 0 1 .00255269999
9999945 16 47 313 0 ?49 42 50 45 0 0 1 31 48 340 0 50 51 45 0 +722736637140529e-
30 116647607618786e-34 .069 0 -1 0 0 0 -1 .002552699999999945 16 50 314 0 ?52 47
 53 48 0 0 1 31 51 406 0 53 54 48 0 +-.03449999999999945 .02 .0597557528611266 0
 1 0 0 0 1 .002552699999999945 16 53 381 0 ?55 50 56 51 0 0 1 31 54 408 0 56 57
 51 0 +-.03449999999999945 116647607618786e-34 .0597557528611266 0 -1 0 0 0 -1 .
002552699999999945 16 56 382 0 ?58 53 59 54 0 0 1 31 57 474 0 59 60 54 0 +-.0597
55752861126 .02 .0345000000000005 0 1 0 0 0 1 .002552699999999945 16 59 449 0 ?6
1 56 62 57 0 0 1 31 60 476 0 62 63 57 0 +-.059755752861126 116647607618786e-34 .
0345000000000005 0 -1 0 0 0 -1 .002552699999999945 16 62 450 0 ?64 59 65 60 0 0
 1 31 63 542 0 65 66 60 0 +-.069 .02 481824424760352e-30 0 1 0 0 0 1 .0025526999
9999995 16 65 517 0 ?67 62 68 63 0 0 1 31 66 544 0 68 69 63 0 +-.069 11664760761
8786e-34 481824424760352e-30 0 -1 0 0 0 -1 .00255269999999995 16 68 518 0 ?70 65
 71 66 0 0 1 31 69 610 0 71 72 66 0 +-.0597557528611265 .02 -.03449999999999965
 0 1 0 0 0 1 .002552699999999945 16 71 585 0 ?73 68 74 69 0 0 1 31 72 612 0 74 7
5 69 0 +-.0597557528611265 116647607618786e-34 -.03449999999999965 0 -1 0 0 0 -1
 .002552699999999945 16 74 586 0 ?76 71 77 72 0 0 1 31 75 678 0 77 78 72 0 +-.03
45 .02 -.0597557528611261 0 1 0 0 0 1 .002552699999999945 16 77 653 0 ?79 74 80
 75 0 0 1 31 78 680 0 80 81 75 0 +-.0345 116647607618786e-34 -.0597557528611261
 0 -1 0 0 0 -1 .002552699999999945 16 80 654 0 ?82 77 83 78 0 0 1 31 81 746 0 83
 84 78 0 +-240912212380176e-30 .02 -.069 0 1 0 0 0 1 .002552699999999945 16 83 7
21 0 ?85 80 86 81 0 0 1 31 84 748 0 86 87 81 0 +-240912212380176e-30 11664760761
8786e-34 -.069 0 -1 0 0 0 -1 .002552699999999945 16 86 722 0 ?88 83 89 84 0 0 1
 31 87 814 0 89 90 84 0 +.0345 .02 -.0597557528611264 0 1 0 0 0 1 .0025526999999
99945 16 89 789 0 ?91 86 92 87 0 0 1 31 90 816 0 92 93 87 0 +.0345 1166476076187
86e-34 -.0597557528611264 0 -1 0 0 0 -1 .002552699999999945 16 92 790 0 ?94 89 9
5 90 0 0 1 31 93 882 0 95 96 90 0 +.0597557528611262 .02 -.0345 0 1 0 0 0 1 .002
552699999999945 16 95 857 0 ?97 92 98 93 0 0 1 31 96 884 0 98 99 93 0 +.05975575
28611262 116647607618786e-34 -.0345 0 -1 0 0 0 -1 .002552699999999945 16 98 858
 0 ?100 95 101 96 0 0 1 31 99 949 0 101 102 96 0 +.069 .02 0 0 1 0 0 0 1 .002552
69999999995 16 101 924 0 ?103 98 104 99 0 0 1 31 102 951 0 104 105 99 0 +.069 11
6647607618786e-34 0 0 -1 0 0 0 -1 .00255269999999995 16 104 925 0 ?106 101 18 10
2 0 0 1 31 105 1031 0 107 108 102 0 +0 0 0 0 -1 0 0 0 -1 .05514 16 107 998 0 ?10
9 110 0 105 0 0 1 31 108 1032 0 110 0 105 0 +0 .002 0 0 -1 0 0 0 -1 .05514 16 11
0 994 0 ?111 18 107 108 0 0 1 17 111 0 112 111 111 0 113 110 0 0 +16 18 997 0 ?1
14 104 110 7 0 0 1 17 114 0 115 114 114 0 116 18 0 0 +15 255 115 981 0 114 14 0
 17 116 0 117 116 116 0 114 18 0 0 -15 117 1018 0 116 118 112 14 255 118 1015 11
9 ?0 120 117 5 121 +0 0 0 120 20 15 112 1019 0 111 118 0 81 1 119 1313 122 118 1
23 0 0 124 125 14 120 1009 124 ?118 126 127 5 128 -0 0 118 126 20 50 255 121 102
9 0 118 0 128 0 +0 .002 0 0 -1 0 0 0 -1 13 20 10 0 0 0 0 0 0 8 14 14 14 984 129
 ?130 0 131 5 132 +0 0 130 0 20 81 1 129 1315 122 14 133 0 124 134 135 14 130 88
9 134 ?136 14 137 5 17 -0 0 136 14 20 15 131 60 0 36 14 115 51 132 70 0 14 138 1
39 0 -0 .02 0 0 -1 0 .0386715 0 0 -1 51 138 202 0 140 141 132 0 +.05975575286112
67 0 .03449999999999925 0 -1 0 .002552699999999945 0 0 -1 50 139 3 0 136 132 17
 0 +0 .02 0 0 1 0 0 0 1 14 136 48 142 ?16 130 143 5 139 +0 0 16 130 20 50 17 24
 0 130 139 6 0 +0 0 0 0 1 0 0 0 1 81 1 142 1317 122 136 144 0 134 145 146 14 16
 27 145 ?140 136 147 5 6 -0 0 140 136 20 15 143 906 0 148 136 149 17 148 0 143 1
48 148 0 103 101 0 0 -15 149 839 0 150 136 151 17 150 0 149 150 150 0 97 95 0 0
 -15 151 771 0 152 136 153 17 152 0 151 152 152 0 91 89 0 0 -15 153 703 0 154 13
6 155 17 154 0 153 154 154 0 85 83 0 0 -15 155 635 0 156 136 157 17 156 0 155 15
6 156 0 79 77 0 0 -15 157 567 0 158 136 159 17 158 0 157 158 158 0 73 71 0 0 -15
 159 499 0 160 136 161 17 160 0 159 160 160 0 67 65 0 0 -15 161 431 0 162 136 16
3 17 162 0 161 162 162 0 61 59 0 0 -15 163 363 0 164 136 165 17 164 0 163 164 16
4 0 55 53 0 0 -15 165 295 0 166 136 167 17 166 0 165 166 166 0 49 47 0 0 -15 167
 227 0 168 136 169 17 168 0 167 168 168 0 41 38 0 0 -15 169 140 0 35 136 24 17 3
5 0 169 35 35 0 32 31 0 0 -15 24 4 0 21 136 170 15 170 45 0 171 136 0 17 171 0 1
70 171 171 0 36 27 0 0 -17 36 0 131 36 36 0 171 27 0 0 +17 41 0 172 41 41 0 168
 38 0 0 +15 172 263 0 41 173 174 14 173 260 175 ?176 140 172 5 141 -0 0 176 140
 20 15 174 264 0 46 173 0 17 46 0 174 46 46 0 177 42 0 0 +17 177 0 178 177 177 0
 46 42 0 0 -15 178 207 0 177 130 179 15 179 158 0 40 130 180 17 40 0 179 40 40 0
 37 33 0 0 -15 180 19 0 181 130 182 17 181 0 180 181 181 0 26 22 0 0 -15 182 888
 0 183 130 0 17 183 0 182 183 183 0 106 104 0 0 -17 106 0 184 106 106 0 183 104
 0 0 +15 184 943 0 106 126 0 14 126 939 185 ?120 186 187 5 188 -0 0 120 186 20 8
1 1 185 1320 122 126 189 0 175 190 191 14 186 872 190 ?126 192 193 5 194 -0 0 12
6 192 20 15 187 942 0 103 126 184 51 188 948 0 126 128 194 0 +.069 0 0 0 -1 0 .0
0255269999999995 0 0 -1 51 128 1027 0 120 121 188 0 +0 .002 0 0 -1 0 .05514 0 0
 -1 51 194 881 0 186 188 195 0 +.0597557528611262 0 -.0345 0 -1 0 .0025526999999
99945 0 0 -1 51 195 813 0 192 194 196 0 +.0345 0 -.0597557528611264 0 -1 0 .0025
52699999999945 0 0 -1 14 192 804 197 ?186 198 199 5 195 -0 0 186 198 20 51 196 7
45 0 198 195 200 0 +-240912212380176e-30 0 -.069 0 -1 0 .002552699999999945 0 0
 -1 14 198 736 201 ?192 202 203 5 196 -0 0 192 202 20 51 200 677 0 202 196 204 0
 +-.0345 0 -.0597557528611261 0 -1 0 .002552699999999945 0 0 -1 14 202 668 205 ?
198 206 207 5 200 -0 0 198 206 20 51 204 609 0 206 200 208 0 +-.0597557528611265
 0 -.03449999999999965 0 -1 0 .002552699999999945 0 0 -1 14 206 600 209 ?202 210
 211 5 204 -0 0 202 210 20 51 208 541 0 210 204 212 0 +-.069 0 481824424760352e-
30 0 -1 0 .00255269999999995 0 0 -1 14 210 532 213 ?206 214 215 5 208 -0 0 206 2
14 20 51 212 473 0 214 208 216 0 +-.059755752861126 0 .0345000000000005 0 -1 0 .
002552699999999945 0 0 -1 14 214 464 217 ?210 218 219 5 212 -0 0 210 218 20 51 2
16 405 0 218 212 220 0 +-.03449999999999945 0 .0597557528611266 0 -1 0 .00255269
9999999945 0 0 -1 14 218 396 221 ?214 176 222 5 216 -0 0 214 176 20 51 220 337 0
 176 216 141 0 +722736637140529e-30 0 .069 0 -1 0 .002552699999999945 0 0 -1 14
 176 328 223 ?218 173 224 5 220 -0 0 218 173 20 51 141 269 0 173 220 138 0 +.034
5000000000007 0 .0597557528611259 0 -1 0 .002552699999999945 0 0 -1 81 1 223 132
9 122 176 225 0 221 226 227 15 224 331 0 49 176 228 17 49 0 224 49 49 0 166 47 0
 0 +15 228 332 0 52 176 0 17 52 0 228 52 52 0 229 50 0 0 +17 229 0 230 229 229 0
 52 50 0 0 -15 230 275 0 229 130 178 80 255 1 122 231 232 9000 1 1 1 1 1 1 1 1 0
 FFFFTFTFFFFFFF1 81 1 225 1263 233 176 0 223 234 235 236 81 1 221 1328 122 218 2
35 0 217 223 237 81 1 226 1330 122 140 238 0 223 0 239 82 255 1 227 2091778391 1
4 140 193 226 ?173 16 34 5 138 -0 0 173 16 20 81 1 238 1261 233 140 0 226 240 23
4 241 82 1 239 2123891031 80 1 233 0 242 8001 0 0 0 0 3 5 0 0 0 FFFFTFTFFFFFFF2
 81 1 240 1260 233 16 0 145 144 238 243 81 1 234 1262 233 173 0 175 238 225 244
 83 255 3 241 .776470588235294 .756862745098039 .737254901960784 81 1 175 1319 1
22 173 234 0 145 185 245 83 3 244 .776470588235294 .756862745098039 .73725490196
0784 81 1 145 1318 122 16 240 0 142 175 246 82 1 245 2107834711 82 1 246 1024852
265 81 1 144 1259 233 136 0 142 247 240 248 83 3 243 .776470588235294 .756862745
098039 .737254901960784 81 1 247 1258 233 130 0 134 133 144 249 83 3 248 .776470
588235294 .756862745098039 .737254901960784 81 1 134 1316 122 130 247 0 129 142
 250 81 1 133 1257 233 14 0 129 0 247 251 83 3 249 .776470588235294 .75686274509
8039 .737254901960784 83 3 251 .776470588235294 .756862745098039 .73725490196078
4 82 1 250 -2122776232 79 255 15 242 SDL/TYSA_COLOUR15 34 196 0 32 140 39 15 39
 197 0 37 140 0 81 1 235 1264 233 218 0 221 225 252 253 81 1 217 1327 122 214 25
2 0 213 221 254 82 1 237 2075722071 81 1 252 1265 233 214 0 217 235 255 256 81 1
 213 1326 122 210 255 0 209 217 257 82 1 254 2059665751 81 1 255 1266 233 210 0
 213 252 258 259 81 1 209 1325 122 206 258 0 205 213 260 82 1 257 2043609431 81
 1 258 1267 233 206 0 209 255 261 262 81 1 205 1324 122 202 261 0 201 209 263 82
 1 260 2027553111 81 1 261 1268 233 202 0 205 258 264 265 81 1 201 1323 122 198
 264 0 197 205 266 82 1 263 2011496791 81 1 264 1269 233 198 0 201 261 267 268 8
1 1 197 1322 122 192 267 0 190 201 269 82 1 266 1995440471 81 1 267 1270 233 192
 0 197 264 270 271 81 1 190 1321 122 186 270 0 185 197 272 82 1 269 1979384151 8
1 1 270 1271 233 186 0 190 267 189 273 82 1 272 1963327831 81 1 189 1272 233 126
 0 185 270 274 275 83 3 273 .776470588235294 .756862745098039 .737254901960784 8
1 1 274 1273 233 120 0 124 189 123 276 83 3 275 .776470588235294 .75686274509803
9 .737254901960784 81 1 124 1314 122 120 274 0 119 129 277 81 1 123 1274 233 118
 0 119 274 0 278 83 3 276 .776470588235294 .756862745098039 .737254901960784 83
 3 278 .776470588235294 .756862745098039 .737254901960784 82 1 277 -2099773096 8
3 3 271 .776470588235294 .756862745098039 .737254901960784 83 3 268 .77647058823
5294 .756862745098039 .737254901960784 83 3 265 .776470588235294 .75686274509803
9 .737254901960784 83 3 262 .776470588235294 .756862745098039 .737254901960784 8
3 3 259 .776470588235294 .756862745098039 .737254901960784 83 3 256 .77647058823
5294 .756862745098039 .737254901960784 83 3 253 .776470588235294 .75686274509803
9 .737254901960784 83 3 236 .776470588235294 .756862745098039 .737254901960784 7
9 14 232 SWEntUnchanged15 222 399 0 55 218 279 17 55 0 222 55 55 0 164 53 0 0 +1
5 279 400 0 58 218 0 17 58 0 279 58 58 0 280 56 0 0 +17 280 0 281 280 280 0 58 5
6 0 0 -15 281 343 0 280 130 230 15 219 467 0 61 214 282 17 61 0 219 61 61 0 162
 59 0 0 +15 282 468 0 64 214 0 17 64 0 282 64 64 0 283 62 0 0 +17 283 0 284 283
 283 0 64 62 0 0 -15 284 411 0 283 130 281 15 215 535 0 67 210 285 17 67 0 215 6
7 67 0 160 65 0 0 +15 285 536 0 70 210 0 17 70 0 285 70 70 0 286 68 0 0 +17 286
 0 287 286 286 0 70 68 0 0 -15 287 479 0 286 130 284 15 211 603 0 73 206 288 17
 73 0 211 73 73 0 158 71 0 0 +15 288 604 0 76 206 0 17 76 0 288 76 76 0 289 74 0
 0 +17 289 0 290 289 289 0 76 74 0 0 -15 290 547 0 289 130 287 15 207 671 0 79 2
02 291 17 79 0 207 79 79 0 156 77 0 0 +15 291 672 0 82 202 0 17 82 0 291 82 82 0
 292 80 0 0 +17 292 0 293 292 292 0 82 80 0 0 -15 293 615 0 292 130 290 15 203 7
39 0 85 198 294 17 85 0 203 85 85 0 154 83 0 0 +15 294 740 0 88 198 0 17 88 0 29
4 88 88 0 295 86 0 0 +17 295 0 296 295 295 0 88 86 0 0 -15 296 683 0 295 130 293
 15 199 807 0 91 192 297 17 91 0 199 91 91 0 152 89 0 0 +15 297 808 0 94 192 0 1
7 94 0 297 94 94 0 298 92 0 0 +17 298 0 299 298 298 0 94 92 0 0 -15 299 751 0 29
8 130 296 17 103 0 187 103 103 0 148 101 0 0 +15 193 875 0 97 186 300 17 97 0 19
3 97 97 0 150 95 0 0 +15 300 876 0 100 186 0 17 100 0 300 100 100 0 301 98 0 0 +
17 301 0 302 301 301 0 100 98 0 0 -15 302 819 0 301 130 299 82 1 191 1947205975
 17 26 0 303 26 26 0 181 22 0 0 +15 303 28 0 26 16 0 15 147 26 0 25 16 303 17 25
 0 147 25 25 0 21 9 0 0 -82 1 146 522453335 15 137 987 0 304 130 302 17 304 0 13
7 304 304 0 109 107 0 0 -17 109 0 305 109 109 0 304 107 0 0 +15 305 1014 0 109 1
20 0 82 1 135 -2097807016 15 127 1013 0 113 120 305 17 113 0 127 113 113 0 111 1
10 0 0 -82 1 125 -2099642024 19 15 32 0 1 0 8 5 S0 74 4 CI16 index_map_offset0 0
 1 dCCZ20 13 8 0 0 306 307 226 308 309 11 123 2 0 0 0 0 0 0 0 0 0 0 0 0 81 2 306
 37 310 1 0 307 0 0 0 311 81 2 307 91 312 1 306 308 0 0 0 313 81 2 308 1046 314
 1 307 309 0 0 315 0 81 2 309 1215 316 1 308 11 0 0 0 317 81 2 11 1218 318 1 309
 2 0 0 0 0 80 2 318 319 320 9000 0 0 0 0 3 5 0 0 0 FFTFFFFFFFFFFF9 1 79 16 320 B
ODY_RECIPE_200180 2 316 321 322 9000 0 0 0 0 3 5 0 0 0 FFTFFFFFFFFFFF9 1 82 1 31
7 1 79 24 322 BODY_IN_LIGHTWEIGHT_PERM80 2 314 323 324 8004 0 0 0 0 3 5 0 0 0 FF
TFFFFFFFFFFF2 3 83 1 315 1 79 16 324 SDL/TYSA_DENSITY80 2 312 325 326 9000 0 0 0
 0 3 5 0 0 0 FFTFFFFFFFFFFF9 1 82 1 313 26 79 30 326 LAST_BODY_MODIFYING_FEATURE
_ID80 2 310 327 328 9000 0 0 0 0 3 5 0 0 0 FFTFFFFFFFFFFT9 1 82 1 311 121 79 19
 328 ENT_TIME_STAMP_200180 2 10 329 330 9000 0 0 0 0 3 5 0 0 0 FFTFFFFFFFFFFF9 1
 82 1 12 101 79 12 330 ATOM_ID_20011 0 
