**ABCDEFGHIJKLMNOPQRSTUVWXYZabcdefghijklmnopqrstuvwxyz**************************
**PARASOLID !"#$%&'()*+,-./:;<=>?@[\]^_`{|}~0123456789**************************
**PART1;
MC=AMD64;
MC_MODEL=AMD64 Family 25 Model 33 Stepping 0, AuthenticAMD;
MC_ID=unknown;
OS=Windows_NT;
OS_RELEASE=unknown;
FRU=Parasolid Version 31.1, build 290,  3- 9-2020;
APPL=SOLIDWORKS 2020-2020128;
SITE=;
USER=unknown;
FORMAT=text;
GUISE=transmit;
KEY=ThroatlessEngineBasePlate;
FILE=ThroatlessEngineBasePlate.x_t;
DATE=Wed May 19 10:50:32 2021;
**PART2;
SCH=SCH_3101290_31100;
USFLD_SIZE=0;
**PART3;
**END_OF_HEADER*****************************************************************
T51 : TRANSMIT FILE created by modeller version 310129023 SCH_3101290_31100_1300
6222 0 12 34 CCCCCCI4 mesh1006 0 I8 polyline1008 0 CCCCCCCDI5 owner1040 0 CCCCCC
I13 boundary_mesh1006 0 I17 boundary_polyline1008 0 CCCA16 index_map_offset0 0 1
 dA9 index_map82 0 A17 node_id_index_map82 0 A20 schema_embedding_map82 0 A5 chi
ld12 0 A14 lowest_node_id0 0 1 dA16 mesh_offset_data206 0 Z1 991 2 3 0 0 0 0 0 0
 1e3 1e-8 0 4 0 1 0 1 1 5 6 7 0 0 0 8 9 0 0 0 0 0 0 0 0 81 255 2 2 973 10 1 11 0
 0 0 0 12 70 11 CI9 list_type0 0 1 uI10 notransmit0 0 1 lCCCDCCDI12 finger_index
0 0 1 dI12 finger_block1012 0 CZ3 0 4 T1 0 0 9 20 1 13 13 13 255 5 31 0 1 0 14 0
 0 15 0 51 255 6 30 0 16 17 0 0 -0 .02 0 0 -1 0 .0762 0 0 -1 31 255 7 696 0 18 1
9 0 0 +0 .002 0 0 -1 0 0 0 -1 .0386715 19 8 CCCCCCCA5 owner12 0 Z8 9 0 1 15 0 20
 V0 16 255 9 5 0 ?21 0 22 23 0 0 1 17 255 21 0 24 21 21 0 25 9 0 0 +16 22 20 0 ?
26 9 27 19 0 0 1 31 23 7 0 9 28 19 0 +0 .02 0 0 1 0 0 0 1 .0762 31 28 74 0 27 29
 23 0 +0 .02 0 0 1 0 0 0 1 .0386715 31 19 25 0 22 23 7 0 +0 0 0 0 1 0 0 0 1 .076
2 16 27 54 0 ?30 22 31 28 0 0 1 31 29 145 0 31 32 28 0 +.069 .02 0 0 1 0 0 0 1 .
00259079999999995 16 31 120 0 ?33 27 34 29 0 0 1 31 32 147 0 34 35 29 0 +.069 -7
15438660061884e-34 0 0 -1 0 0 0 -1 .00259079999999995 16 34 121 0 ?36 31 37 32 0
 0 1 31 35 197 0 37 38 32 0 +.0597557528611262 .02 .0345 0 -1 0 0 0 -1 .00259079
999999994 16 37 178 0 ?39 34 40 35 0 0 1 31 38 198 0 40 41 35 0 +.05975575286112
62 -715438660061884e-34 .0345 0 -1 0 0 0 -1 .00259079999999994 16 40 177 0 ?42 3
7 43 38 0 0 1 31 41 244 0 43 44 38 0 +.0345 .02 .0597557528611264 0 -1 0 0 0 -1
 .00259079999999994 16 43 225 0 ?45 40 46 41 0 0 1 31 44 245 0 46 47 41 0 +.0345
 -715438660061884e-34 .0597557528611264 0 -1 0 0 0 -1 .00259079999999994 16 46 2
24 0 ?48 43 49 44 0 0 1 31 47 291 0 49 50 44 0 +-240912212380176e-30 .02 .069 0
 -1 0 0 0 -1 .00259079999999994 16 49 272 0 ?51 46 52 47 0 0 1 31 50 292 0 52 53
 47 0 +-240912212380176e-30 -715438660061884e-34 .069 0 -1 0 0 0 -1 .00259079999
9999945 16 52 271 0 ?54 49 55 50 0 0 1 31 53 338 0 55 56 50 0 +-.0345 .02 .05975
57528611261 0 -1 0 0 0 -1 .00259079999999994 16 55 319 0 ?57 52 58 53 0 0 1 31 5
6 339 0 58 59 53 0 +-.0345 -715438660061884e-34 .0597557528611261 0 -1 0 0 0 -1
 .00259079999999994 16 58 318 0 ?60 55 61 56 0 0 1 31 59 385 0 61 62 56 0 +-.059
7557528611265 .02 .03449999999999965 0 -1 0 0 0 -1 .00259079999999994 16 61 366
 0 ?63 58 64 59 0 0 1 31 62 386 0 64 65 59 0 +-.0597557528611265 -71543866006188
4e-34 .03449999999999965 0 -1 0 0 0 -1 .00259079999999994 16 64 365 0 ?66 61 67
 62 0 0 1 31 65 432 0 67 68 62 0 +-.069 .02 0 0 -1 0 0 0 -1 .00259079999999995 1
6 67 413 0 ?69 64 70 65 0 0 1 31 68 433 0 70 71 65 0 +-.069 -715438660061884e-34
 0 0 -1 0 0 0 -1 .00259079999999995 16 70 412 0 ?72 67 73 68 0 0 1 31 71 479 0 7
3 74 68 0 +-.059755752861126 .02 -.0345000000000005 0 -1 0 0 0 -1 .0025907999999
9994 16 73 460 0 ?75 70 76 71 0 0 1 31 74 480 0 76 77 71 0 +-.059755752861126 -7
15438660061884e-34 -.0345000000000005 0 -1 0 0 0 -1 .00259079999999994 16 76 459
 0 ?78 73 79 74 0 0 1 31 77 526 0 79 80 74 0 +-.03449999999999945 .02 -.05975575
28611266 0 -1 0 0 0 -1 .00259079999999994 16 79 507 0 ?81 76 82 77 0 0 1 31 80 5
27 0 82 83 77 0 +-.03449999999999945 -715438660061884e-34 -.0597557528611266 0 -
1 0 0 0 -1 .00259079999999994 16 82 506 0 ?84 79 85 80 0 0 1 31 83 571 0 85 86 8
0 0 +722736637140529e-30 .02 -.069 0 -1 0 0 0 -1 .00259079999999994 16 85 552 0
 ?87 82 88 83 0 0 1 31 86 572 0 88 89 83 0 +722736637140529e-30 -715438660061884
e-34 -.069 0 -1 0 0 0 -1 .002590799999999945 16 88 551 0 ?90 85 91 86 0 0 1 31 8
9 617 0 91 92 86 0 +.0345000000000007 .02 -.0597557528611259 0 -1 0 0 0 -1 .0025
9079999999994 16 91 598 0 ?93 88 94 89 0 0 1 31 92 618 0 94 95 89 0 +.0345000000
000007 -715438660061884e-34 -.0597557528611259 0 -1 0 0 0 -1 .00259079999999994
 16 94 597 0 ?96 91 97 92 0 0 1 31 95 664 0 97 98 92 0 +.0597557528611267 .02 -.
03449999999999925 0 -1 0 0 0 -1 .00259079999999994 16 97 645 0 ?99 94 100 95 0 0
 1 31 98 665 0 100 101 95 0 +.0597557528611267 -715438660061884e-34 -.0344999999
9999925 0 -1 0 0 0 -1 .00259079999999994 16 100 644 0 ?102 97 18 98 0 0 1 31 101
 744 0 103 104 98 0 +0 0 0 0 -1 0 0 0 -1 .05514 16 103 711 0 ?105 106 0 101 0 0
 1 31 104 745 0 106 0 101 0 +0 .002 0 0 -1 0 0 0 -1 .05514 16 106 707 0 ?107 18
 103 104 0 0 1 17 107 0 108 107 107 0 109 106 0 0 +16 18 710 0 ?110 100 106 7 0
 0 1 17 110 0 111 110 110 0 112 18 0 0 +15 255 111 694 0 110 14 0 17 112 0 113 1
12 112 0 110 18 0 0 -15 113 731 0 112 114 108 14 255 114 728 115 ?0 116 113 5 11
7 +0 0 0 116 20 15 108 732 0 107 114 0 81 1 115 974 118 114 119 0 0 120 121 14 1
16 722 120 ?114 122 123 5 124 -0 0 114 122 20 50 255 117 742 0 114 0 124 0 +0 .0
02 0 0 -1 0 0 0 -1 13 20 10 0 0 0 0 0 0 8 14 14 14 697 125 ?126 0 127 5 128 +0 0
 126 0 20 81 1 125 976 118 14 129 0 120 130 131 14 126 592 130 ?132 14 133 5 134
 +0 0 132 14 20 15 127 60 0 30 14 111 51 128 70 0 14 135 134 0 -0 .02 0 0 -1 0 .
0386715 0 0 -1 51 135 144 0 136 137 128 0 +.069 0 0 0 -1 0 .00259079999999995 0
 0 -1 50 134 3 0 126 128 17 0 +0 .02 0 0 1 0 0 0 1 50 17 24 0 132 134 6 0 +0 0 0
 0 1 0 0 0 1 14 132 546 138 ?16 126 139 5 17 -0 0 16 126 20 81 1 138 978 118 132
 140 0 130 141 142 14 16 27 141 ?136 132 143 5 6 -0 0 136 132 20 15 139 700 0 14
4 132 145 17 144 0 139 144 144 0 105 103 0 0 -15 145 636 0 146 132 147 17 146 0
 145 146 146 0 102 100 0 0 -15 147 582 0 148 132 149 17 148 0 147 148 148 0 96 9
4 0 0 -15 149 498 0 150 132 151 17 150 0 149 150 150 0 84 82 0 0 -15 151 451 0 1
52 132 153 17 152 0 151 152 152 0 78 76 0 0 -15 153 404 0 154 132 155 17 154 0 1
53 154 154 0 72 70 0 0 -15 155 357 0 156 132 157 17 156 0 155 156 156 0 66 64 0
 0 -15 157 302 0 158 132 159 17 158 0 157 158 158 0 60 58 0 0 -15 159 263 0 160
 132 161 17 160 0 159 160 160 0 54 52 0 0 -15 161 216 0 162 132 163 17 162 0 161
 162 162 0 48 46 0 0 -15 163 169 0 164 132 165 17 164 0 163 164 164 0 42 40 0 0
 -15 165 19 0 166 132 167 17 166 0 165 166 166 0 26 22 0 0 -15 167 106 0 168 132
 169 17 168 0 167 168 168 0 36 34 0 0 -15 169 545 0 170 132 0 17 170 0 169 170 1
70 0 90 88 0 0 -17 90 0 171 90 90 0 170 88 0 0 +15 171 565 0 90 172 0 14 172 561
 173 ?174 175 176 5 177 -0 0 174 175 20 81 1 173 980 118 172 178 0 141 179 180 1
4 174 607 179 ?122 172 181 5 182 -0 0 122 172 20 14 175 516 183 ?172 184 185 5 1
86 -0 0 172 184 20 15 176 564 0 187 172 171 51 177 570 0 172 182 186 0 +72273663
7140529e-30 0 -.069 0 -1 0 .002590799999999945 0 0 -1 51 182 616 0 174 188 177 0
 +.0345000000000007 0 -.0597557528611259 0 -1 0 .00259079999999994 0 0 -1 51 186
 525 0 175 177 189 0 +-.03449999999999945 0 -.0597557528611266 0 -1 0 .002590799
99999994 0 0 -1 51 189 478 0 184 186 190 0 +-.059755752861126 0 -.03450000000000
05 0 -1 0 .00259079999999994 0 0 -1 14 184 469 191 ?175 192 193 5 189 -0 0 175 1
92 20 51 190 431 0 192 189 194 0 +-.069 0 0 0 -1 0 .00259079999999995 0 0 -1 14
 192 422 195 ?184 196 197 5 190 -0 0 184 196 20 51 194 384 0 196 190 198 0 +-.05
97557528611265 0 .03449999999999965 0 -1 0 .00259079999999994 0 0 -1 14 196 375
 199 ?192 200 201 5 194 -0 0 192 200 20 51 198 337 0 200 194 202 0 +-.0345 0 .05
97557528611261 0 -1 0 .00259079999999994 0 0 -1 14 200 328 203 ?196 204 205 5 19
8 -0 0 196 204 20 51 202 290 0 204 198 206 0 +-240912212380176e-30 0 .069 0 -1 0
 .002590799999999945 0 0 -1 14 204 281 207 ?200 208 209 5 202 -0 0 200 208 20 51
 206 243 0 208 202 137 0 +.0345 0 .0597557528611264 0 -1 0 .00259079999999994 0
 0 -1 14 208 234 210 ?204 211 212 5 206 -0 0 204 211 20 51 137 196 0 211 206 135
 0 +.0597557528611262 0 .0345 0 -1 0 .00259079999999994 0 0 -1 14 211 187 213 ?2
08 136 214 5 137 -0 0 208 136 20 81 1 213 989 118 211 215 0 210 216 217 14 136 1
35 216 ?211 16 218 5 135 -0 0 211 16 20 15 214 190 0 219 211 220 17 219 0 214 21
9 219 0 39 37 0 0 -15 220 191 0 42 211 0 17 42 0 220 42 42 0 164 40 0 0 +17 39 0
 221 39 39 0 219 37 0 0 +15 221 162 0 39 126 222 15 222 113 0 223 126 24 17 223
 0 222 223 223 0 33 31 0 0 -15 24 4 0 21 126 224 15 224 45 0 225 126 226 17 225
 0 224 225 225 0 30 27 0 0 -15 226 590 0 93 126 0 17 93 0 226 93 93 0 227 91 0 0
 +17 227 0 181 227 227 0 93 91 0 0 -15 181 610 0 227 174 228 15 228 611 0 96 174
 0 17 96 0 228 96 96 0 148 94 0 0 +17 30 0 127 30 30 0 225 27 0 0 +17 33 0 218 3
3 33 0 223 31 0 0 +15 218 138 0 33 136 229 15 229 139 0 36 136 0 17 36 0 229 36
 36 0 168 34 0 0 +81 1 216 990 118 136 230 0 213 231 232 80 255 1 118 233 234 90
00 1 1 1 1 1 1 1 1 0 FFFFTFTFFFFFFF1 81 1 230 922 235 136 0 216 236 215 237 81 1
 231 991 118 122 238 0 216 0 239 82 255 1 232 1046675754 14 122 654 231 ?116 174
 240 5 188 -0 0 116 174 20 81 1 238 933 235 122 0 231 241 242 243 82 1 239 12510
17003 80 1 235 0 244 8001 0 0 0 0 3 5 0 0 0 FFFFTFTFFFFFFF2 81 1 241 932 235 174
 0 179 178 238 245 81 1 242 934 235 116 0 120 238 119 246 83 255 3 243 1 .949019
607843137 .909803921568627 81 1 120 975 118 116 242 0 115 125 247 81 1 119 935 2
35 114 0 115 242 0 248 83 3 246 1 .949019607843137 .909803921568627 83 3 248 1 .
949019607843137 .909803921568627 82 1 247 1279066413 81 1 179 981 118 174 241 0
 173 183 249 81 1 178 931 235 172 0 173 250 241 251 83 3 245 1 .949019607843137
 .909803921568627 81 1 250 930 235 175 0 183 252 178 253 83 3 251 1 .94901960784
3137 .909803921568627 81 1 183 982 118 175 250 0 179 191 254 81 1 252 929 235 18
4 0 191 255 250 256 83 3 253 1 .949019607843137 .909803921568627 81 1 191 983 11
8 184 252 0 183 195 257 81 1 255 928 235 192 0 195 258 252 259 83 3 256 1 .94901
9607843137 .909803921568627 81 1 195 984 118 192 255 0 191 199 260 81 1 258 927
 235 196 0 199 261 255 262 83 3 259 1 .949019607843137 .909803921568627 81 1 199
 985 118 196 258 0 195 203 263 81 1 261 926 235 200 0 203 264 258 265 83 3 262 1
 .949019607843137 .909803921568627 81 1 203 986 118 200 261 0 199 207 266 81 1 2
64 925 235 204 0 207 267 261 268 83 3 265 1 .949019607843137 .909803921568627 81
 1 207 987 118 204 264 0 203 210 269 81 1 267 924 235 208 0 210 215 264 270 83 3
 268 1 .949019607843137 .909803921568627 81 1 210 988 118 208 267 0 207 213 271
 81 1 215 923 235 211 0 213 230 267 272 83 3 270 1 .949019607843137 .90980392156
8627 83 3 272 1 .949019607843137 .909803921568627 82 1 271 1084883243 82 1 269 1
103364395 82 1 266 1121845547 82 1 263 1140326699 82 1 260 1158807851 82 1 257 1
177289003 82 1 254 1195770155 82 1 249 1232601387 79 255 15 244 SDL/TYSA_COLOUR1
5 240 657 0 273 122 274 51 188 663 0 122 124 182 0 +.0597557528611267 0 -.034499
99999999925 0 -1 0 .00259079999999994 0 0 -1 51 124 740 0 116 117 188 0 +0 .002
 0 0 -1 0 .05514 0 0 -1 17 273 0 240 273 273 0 99 97 0 0 -15 274 658 0 102 122 0
 17 102 0 274 102 102 0 146 100 0 0 +17 99 0 133 99 99 0 273 97 0 0 +15 133 629
 0 99 126 275 15 275 537 0 87 126 276 17 87 0 275 87 87 0 187 85 0 0 +15 276 491
 0 81 126 277 17 81 0 276 81 81 0 278 79 0 0 +15 277 444 0 75 126 279 17 75 0 27
7 75 75 0 280 73 0 0 +15 279 397 0 69 126 281 17 69 0 279 69 69 0 282 67 0 0 +15
 281 350 0 63 126 283 17 63 0 281 63 63 0 284 61 0 0 +15 283 311 0 57 126 285 17
 57 0 283 57 57 0 286 55 0 0 +15 285 256 0 51 126 287 17 51 0 285 51 51 0 288 49
 0 0 +15 287 209 0 45 126 221 17 45 0 287 45 45 0 289 43 0 0 +17 289 0 212 289 2
89 0 45 43 0 0 -15 212 237 0 289 208 290 15 290 238 0 48 208 0 17 48 0 290 48 48
 0 162 46 0 0 +17 288 0 209 288 288 0 51 49 0 0 -15 209 284 0 288 204 291 15 291
 285 0 54 204 0 17 54 0 291 54 54 0 160 52 0 0 +17 286 0 205 286 286 0 57 55 0 0
 -15 205 331 0 286 200 292 15 292 332 0 60 200 0 17 60 0 292 60 60 0 158 58 0 0
 +17 284 0 201 284 284 0 63 61 0 0 -15 201 378 0 284 196 293 15 293 379 0 66 196
 0 17 66 0 293 66 66 0 156 64 0 0 +17 282 0 197 282 282 0 69 67 0 0 -15 197 425
 0 282 192 294 15 294 426 0 72 192 0 17 72 0 294 72 72 0 154 70 0 0 +17 280 0 19
3 280 280 0 75 73 0 0 -15 193 472 0 280 184 295 15 295 473 0 78 184 0 17 78 0 29
5 78 78 0 152 76 0 0 +17 278 0 185 278 278 0 81 79 0 0 -15 185 519 0 278 175 296
 15 296 520 0 84 175 0 17 84 0 296 84 84 0 150 82 0 0 +17 187 0 176 187 187 0 87
 85 0 0 -81 1 236 921 235 16 0 141 140 230 297 83 3 237 1 .949019607843137 .9098
03921568627 81 1 141 979 118 16 236 0 138 173 298 81 1 140 920 235 132 0 138 299
 236 300 83 3 297 1 .949019607843137 .909803921568627 81 1 299 919 235 126 0 130
 129 140 301 83 3 300 1 .949019607843137 .909803921568627 81 1 130 977 118 126 2
99 0 125 138 302 81 1 129 918 235 14 0 125 0 299 303 83 3 301 1 .949019607843137
 .909803921568627 83 3 303 1 .949019607843137 .909803921568627 82 1 302 12381064
11 82 1 298 1024852265 79 14 234 SWEntUnchanged82 1 217 1066336555 82 1 180 1214
251307 17 26 0 304 26 26 0 166 22 0 0 +15 304 28 0 26 16 0 17 105 0 305 105 105
 0 144 103 0 0 +15 305 727 0 105 116 0 15 143 26 0 25 16 304 17 25 0 143 25 25 0
 21 9 0 0 -82 1 142 1219690797 82 1 131 1281032493 15 123 726 0 109 116 305 17 1
09 0 123 109 109 0 107 106 0 0 -82 1 121 1279197485 19 15 32 0 1 0 8 5 S0 74 4 C
I16 index_map_offset0 0 1 dCCZ20 13 9 0 0 306 307 231 308 309 310 11 119 2 0 0 0
 0 0 0 0 0 0 0 0 81 2 306 37 311 1 0 307 0 0 0 312 81 2 307 91 313 1 306 308 0 0
 0 314 81 2 308 760 315 1 307 309 0 0 316 0 81 1 309 890 317 1 308 310 0 0 318 8
1 2 310 912 319 1 309 11 0 0 0 320 81 2 11 915 321 1 310 2 0 0 0 0 80 2 321 322
 323 9000 0 0 0 0 3 5 0 0 0 FFTFFFFFFFFFFF9 1 79 16 323 BODY_RECIPE_200180 2 319
 324 325 9000 0 0 0 0 3 5 0 0 0 FFTFFFFFFFFFFF9 1 82 1 320 1 79 24 325 BODY_IN_L
IGHTWEIGHT_PERM80 1 317 326 327 9000 1 1 1 1 1 1 1 1 0 FFTFFFFFFFFFFF1 82 1 318
 808735 79 10 327 BODY_MATCH80 2 315 328 329 8004 0 0 0 0 3 5 0 0 0 FFTFFFFFFFFF
FF2 3 83 1 316 1 79 16 329 SDL/TYSA_DENSITY80 2 313 330 331 9000 0 0 0 0 3 5 0 0
 0 FFTFFFFFFFFFFF9 1 82 1 314 26 79 30 331 LAST_BODY_MODIFYING_FEATURE_ID80 2 31
1 332 333 9000 0 0 0 0 3 5 0 0 0 FFTFFFFFFFFFFT9 1 82 1 312 115 79 19 333 ENT_TI
ME_STAMP_200180 2 10 334 335 9000 0 0 0 0 3 5 0 0 0 FFTFFFFFFFFFFF9 1 82 1 12 10
1 79 12 335 ATOM_ID_20011 0 
